<?xml version="1.0" encoding="UTF-8"?>
<svg id="Layer_1" data-name="Layer 1" xmlns="http://www.w3.org/2000/svg" viewBox="0 0 752.93 140.4">
  <path d="m505.12,85.6c-1.56.27-1.32-.78-1.34-1.69-.01-.7-.09-1.41-.1-2.11-.02-1.1-.33-1.36-1.43-1.35-.45,0-1.26-.12-1.3-.32-.34-1.51-1.54-1.42-2.56-1.36-1.58.1-1.95-.49-1.8-1.92.1-.92-.34-1.26-1.23-1.3-1.53-.07-3.07-.2-4.6-.34-.24-.02-.47-.2-.7-.3.25-.07.49-.19.75-.21.87-.06,1.74-.06,2.61-.14.32-.03.62-.25.93-.39-.32-.13-.63-.35-.95-.37-1.61-.13-3.22-.2-4.84-.29-.72-.04-1.25-.2-.96-1.14.23-.72-.34-.73-.8-.75-1.04-.05-2.07-.11-3.11-.11-.71,0-1.04-.21-.84-.96.16-.59.06-.95-.67-.99-1.63-.1-1.66-.12-1.51-1.68.09-.91-.12-1.23-1.15-1.22-1.78.02-3.56-.17-5.34-.32-.22-.02-.42-.31-.63-.48.22-.21.4-.49.66-.6.2-.09.49.04.73.03.15,0,.29-.1.44-.15-.12-.08-.24-.23-.37-.24-1.11-.1-2.21-.18-3.32-.26-.68-.05-1.28-.12-1.02-1.1.06-.22-.16-.73-.34-.78-.84-.23-1.7-.41-2.56-.49-1.03-.1-2.07-.05-3.1-.12-.24-.02-.47-.24-.71-.36.24-.17.46-.45.72-.48,1.03-.11,2.07-.11,3.09-.24.3-.04.57-.34.86-.52-.29-.17-.56-.44-.86-.48-1.8-.21-3.61-.33-5.41-.57-.27-.04-.68-.54-.68-.82.03-1.74.15-3.48.28-5.21.02-.25.22-.48.33-.72.16.24.42.48.45.74.13,1.16.19,2.32.29,3.48.02.17.15.34.22.5.07-.17.21-.35.21-.52.01-1.17-.02-2.33,0-3.5,0-1.13.61-1.59,1.68-1.31.16.04.31.17.46.17.19-.01.41-.08.53-.21.08-.08.06-.38-.01-.44-.14-.1-.37-.13-.55-.12-.16.01-.31.2-.45.18-.38-.04-.77-.13-1.14-.25-.06-.02-.08-.4-.05-.41.34-.11.69-.28,1.03-.26,1.68.12,1.68.14,1.72-1.58.02-.67.04-1.33,1.07-.98.15.05.59-.27.62-.45.22-1.87.39-3.75.56-5.63.09-1.03.15-2.06.24-3.08.01-.16.11-.31.17-.47.08.17.22.33.22.5.02.66-.05,1.33.01,1.99.03.28.29.54.45.81.16-.29.37-.56.47-.86.08-.22.02-.5.01-.74-.08-3.03-.19-6.06-.24-9.09-.04-2.53.02-5.06,0-7.6,0-.27-.2-.54-.31-.81-.13.24-.36.47-.37.72-.05,1.07-.05,2.14-.06,3.22-.02,2.12-.03,4.24-.05,6.35,0,.33-.04.66-.06.98-.06-.34-.15-.67-.18-1.01-.09-.95-.17-1.9-.22-2.85-.18-3.64-.34-7.28-.56-10.92-.01-.21-.56-.59-.76-.53-.92.27-1.01-.28-1.04-.92-.02-.37,0-.75.04-1.12.09-.87-.25-1.19-1.15-1.12-.99.08-1.99.03-2.99.02-.74,0-1.18-.26-1.04-1.15.04-.27-.29-.82-.5-.85-1.75-.22-3.52-.54-5.27-.46-4.73.22-9.44.61-14.16.95-.17.01-.34.15-.51.24.17.08.33.23.5.24,1.7.08,3.4.14,5.11.21.16,0,.31.05.47.07-.07.07-.14.2-.22.21-1.52.18-3.04.43-4.56.49-1.61.06-1.78.11-1.59,1.69.1.87-.02,1.37-1.03,1.39-.29,0-.57.32-.86.49.32.1.63.21.96.3.07.02.19-.04.24,0,.23.14.44.31.65.46-.23.13-.44.34-.68.37-.91.1-1.82.14-2.74.21-.64.05-1.23.3-1.05,1.06.26,1.14-.24.96-.99.73-1.27-.39-2.12.39-1.95,1.71.04.29.11.58.09.86-.02.17-.19.33-.29.5-.16-.16-.45-.32-.45-.49,0-.45.2-.91.16-1.35-.02-.25-.35-.47-.54-.71-.17.21-.45.4-.48.62-.14,1.14-.3,2.28-.28,3.42.1,5.45.26,10.9.4,16.35.02,0,.04,0,.07,0,0,2.17,0,4.33,0,6.5,0,.12.09.24.14.36.03-.12.08-.23.08-.35.14-3.86.28-7.73.43-11.59.04-.95.08-1.9.13-2.85,0-.1.1-.19.16-.28.05.1.14.2.15.3.07.91.16,1.82.17,2.74.07,4.33.12,8.66.19,12.99.07,4.37.44,8.76.13,13.1-.32,4.57.31,9.06.44,13.58,0,.28.47.54.71.82.23-.29.61-.55.66-.87.17-1.04.22-2.1.33-3.15.02-.17.15-.33.24-.5.07.18.19.35.2.53.18,2.4.38,4.8.51,7.21.21,3.98.38,7.96.58,11.94,0,.17.16.33.25.5.07-.13.2-.26.2-.4.04-1.26.06-2.52.1-3.78.02-.79.06-1.58.11-2.36,0-.15.11-.29.17-.44.02.16.04.31.06.47.16,1.82.31,3.63.5,5.45.16,1.57.35,3.13.55,4.69.07.58.22,1.16.33,1.73.07-.58.12-1.16.23-1.73.08-.4.25-.79.38-1.18.12.4.33.81.35,1.21.11,2.32.19,4.65.25,6.98.02.84.5,1.03,1.23,1.02.82-.01,1.65.03,2.47.08.17.01.34.16.51.25-.16.11-.33.32-.47.31-.97-.12-.96.51-.98,1.17-.02.77.44,1.04,1.09,1.07.83.04,1.67.11,2.49.01.32-.04.84-.5.85-.78.04-2.15-.1-4.3-.05-6.44.07-2.77.27-5.55.43-8.32,0-.11.19-.22.29-.33.1.11.28.21.3.34.17.91.29,1.84.47,2.74.06.3.29.56.44.84.13-.26.34-.51.38-.78.69-4.93.43-9.88.27-14.83-.02-.7-.16-1.4-.28-2.1-.02-.14-.17-.26-.26-.38-.13.13-.34.24-.38.39-.25.94-.46,1.9-.7,2.85-.04.16-.2.3-.31.44-.08-.14-.19-.27-.22-.41-.56-3.07-.39-6.13.13-9.18.02-.13.13-.25.19-.38.03.12.06.23.08.35.12.78.18,1.57.38,2.32.08.3.45.53.7.79.2-.28.52-.53.57-.84.17-.9.17-1.82.37-2.71.08-.33.53-.82.82-.82,2.52-.01,5.05.04,7.57.14.49.02,1.16.13.8.99-.32.75.16.8.74.85,2.35.19,4.7.42,7.06.64.11.01.22.07.33.11-.1.04-.21.11-.31.11-1.03.02-2.06.04-3.09.04-.75,0-1.5-.09-2.25-.06-.23,0-.45.26-.68.41.23.17.46.48.71.5,2.3.24,4.61.61,6.91.58,1.33-.02,1.34.37,1.18,1.39-.2,1.35.11,1.61,1.47,1.61.85,0,1.71.04,2.56.13.34.04.67.24,1.01.37-.33.1-.65.2-.99.28-.11.03-.26-.06-.37-.02-.29.08-.56.21-.85.31.27.16.52.43.81.47.9.13,1.8.16,2.7.25,1.03.09,2.06.17,3.09.31.18.02.33.27.5.41-.2.11-.4.33-.6.32-.41-.01-.82-.22-1.22-.19-.25.01-.49.29-.74.45.21.17.39.44.62.48.85.14,1.72.19,2.58.3.9.11,1.8.21,2.69.36.39.07.76.27,1.14.41-.37.12-.74.26-1.12.37-.11.03-.3-.08-.36-.02-.28.24-.67.48-.74.79-.05.2.35.7.6.74,1.06.16,2.14.27,3.21.24.68-.02,1.12.1,1.01.83-.17,1.08.35,1.17,1.22,1.07.83-.1,1.56.01,1.26,1.21-.05.19.26.66.45.69,1.58.28,3.2.74,4.77.65,1.27-.07,1.35.2,1.1,1.22-.23.93,0,1.5,1.17,1.47,1.49-.03,2.99.14,4.49.16,2.25.03,2.25,0,2.14-2.23,0-.08-.03-.18,0-.25.05-.15.14-.28.21-.42.11.14.29.28.31.43.06.58.02,1.17.1,1.74.02.16.32.29.49.43.11-.16.3-.31.31-.47.09-1.9.18-3.81.19-5.72,0-.26-.45-.77-.62-.74Zm-48.17-15.14c-1.76.07-3.53.13-5.29.15-.24,0-.48-.22-.71-.34.23-.12.46-.33.7-.34.91-.04,1.83-.02,2.74-.02,0,0,0-.02,0-.03.83,0,1.66-.02,2.49.01.2,0,.39.19.58.29-.17.1-.33.27-.5.27Zm2.73-35.47c-.22.83-.18,1.73-.29,2.59-.04.3-.18.58-.28.86-.08-.28-.23-.55-.23-.83-.02-.78.05-1.56.02-2.34,0-.2-.23-.39-.35-.58-.1.16-.28.32-.29.49-.17,1.77-.39,3.54-.45,5.32-.03.86-.21,1.27-1.14,1.09-.32-.06-.67-.02-1-.05-.64-.06-.84.18-.86.85-.02.99-.22,1.98-.38,2.96-.02.15-.26.26-.4.39-.09-.17-.21-.33-.28-.51-.18-.51.65-1.25-.37-1.56-.15.52-.37,1.02-.44,1.55-.2,1.5-.33,3.01-.52,4.51-.03.23-.23.44-.35.65-.09-.23-.22-.45-.26-.69-.05-.29-.01-.61-.08-.89-.01-.05-.5-.09-.54,0-.15.28-.17.64-.32.93-.15.29-.36.66-.63.75-.42.13-.91.05-1.36.07-.64.02-1.18,0-1.01-.95.04-.2-.49-.5-.75-.75-.15.29-.32.57-.43.88-.08.22-.06.48-.08.72-.16-.24-.44-.47-.46-.71-.23-4.23-.42-8.47-.63-12.7-.02-.33-.18-.65-.27-.97-.15.32-.4.62-.43.95-.05.79.03,1.58,0,2.37-.04,1.06-.13,2.12-.21,3.18-.01.14-.08.29-.12.43-.05-.14-.12-.29-.13-.43-.12-1.49-.22-2.98-.31-4.28,0-1.15-.02-2.11,0-3.07.01-.47.11-.87.75-.51.92.52,1.12-.09,1.14-.81.02-1.33-.02-2.66-.04-4,0-.62-.07-1.25,0-1.87.03-.27.31-.5.48-.75.13.26.36.52.37.79.05,1.79.05,3.58.1,5.37,0,.3.17.59.27.89.11-.31.3-.63.3-.94-.02-1.62-.07-3.24-.16-4.86-.04-.84.25-1.26,1.13-1.21.46.03.92,0,1.37-.01.63,0,1.38.14.96-.97-.05-.13.38-.62.62-.65.95-.11,1.91-.13,2.87-.12.86,0,1.73.08,2.58.18.23.03.44.25.66.38-.22.12-.44.34-.67.35-.41.02-.82-.13-1.23-.12-.21,0-.4.23-.61.35.2.18.38.48.59.51,1.08.13,2.17.15,3.25.3.33.04.84.33.88.58.41,2.29.62,4.58,0,6.89Zm.86,22.58c-.22-.54-.45-.83-.41-1.07.05-.37.29-.72.45-1.08.24.35.6.68.67,1.06.05.24-.34.56-.71,1.1Zm.91-26.7c-.08.49-.18.98-.28,1.47-.16-.45-.32-.9-.48-1.36l.17-.05c-.02-.2-.11-.42-.06-.61.05-.2.22-.36.34-.54.11.15.27.3.31.47.05.19.03.41,0,.61Z"/>
  <path d="m265.27,102.62c-.02-.25-.3-.48-.47-.72-.12.26-.3.52-.34.79-.11.65-.11,1.32-.27,1.96-.06.23-.44.39-.67.58-.15-.22-.39-.41-.43-.65-.23-1.41-.39-2.84-.61-4.25-.04-.24-.23-.45-.35-.67-.08.25-.19.5-.23.76-.02.15.13.35.09.48-.1.28-.28.53-.43.8-.16-.24-.43-.48-.46-.74-.11-.95-.18-1.91-.2-2.86-.05-2.53-.07-5.07-.1-7.61,0-.48-.01-1.01-.75-.71-1.01.41-1.13-.25-1.22-.98-.1-.86-.2-1.72-.34-2.58-.03-.16-.24-.3-.36-.44-.08.16-.23.31-.24.48-.07.97-.11,1.94-.18,2.9,0,.1-.1.2-.16.3-.06-.09-.17-.17-.19-.26-.27-1.5-.58-2.99-.78-4.5-.23-1.74-.35-3.5-.54-5.25-.02-.15-.21-.27-.33-.41-.07.17-.21.34-.21.52-.01.75.12,1.51-.02,2.23-.08.42-.56.76-.87,1.14-.21-.36-.54-.7-.6-1.08-.11-.77-.02-1.57-.11-2.34-.04-.3-.35-.56-.53-.85-.11.29-.24.57-.31.86-.06.26-.05.53-.07.79-.26-.05-.71-.06-.73-.17-.18-.83-.34-1.67-.38-2.52-.15-3.36-.24-6.73-.4-10.09-.02-.33-.36-.64-.55-.96-.13.33-.4.66-.38.98.17,2.28.4,4.55.59,6.82.02.26-.01.59-.16.77-.1.13-.56.16-.66.05-.16-.17-.22-.5-.22-.76-.01-1.78.09-3.56-.02-5.33-.11-1.8-.45-3.58-.61-5.37-.05-.52.11-1.12-.64-1.05-.58.05-1.19.29-.73,1.16.06.11-.3.45-.46.68-.17-.19-.48-.38-.5-.59-.26-3.14-.49-6.28-.72-9.41-.08-1.12-.11-2.24-.19-3.36-.01-.17-.19-.32-.29-.48-.07.17-.19.35-.2.52-.08,1.7-.14,3.4-.23,5.1-.01.29-.13.57-.21.85-.07-.27-.17-.53-.2-.8-.2-2.14-.38-4.29-.6-6.43-.04-.37-.22-.73-.34-1.09-.01.35.04.72-.05,1.05-.1.33-.34.61-.52.92-.17-.28-.43-.53-.49-.83-.16-.81-.39-1.65-.33-2.45.15-1.84-.17-2.07-1.92-1.85-.39.05-1.1-.32-1.2-.65-.24-.77-.27-1.62-.24-2.43.03-.65-.15-.9-.75-.71-.84.27-1.05-.26-1.15-.88-.06-.4.04-.83,0-1.24-.02-.31-.12-.62-.23-.91-.02-.04-.41-.03-.43.03-.11.32-.2.66-.23,1-.02.33.1.66.07.98-.01.16-.22.3-.34.45-.11-.16-.3-.31-.31-.47-.03-.61.05-1.24-.02-1.85-.2-1.79-.46-3.58-.7-5.36-.03-.26-.07-.52-.11-.79-.27.04-.6,0-.8.15-.1.07.09.49.02.7-.11.34-.29.7-.55.91-.11.08-.77-.28-.75-.34.23-.97-.35-1.59-.83-2.3-.16-.24.08-.72.08-1.09,0-.3-.1-.61-.19-.9-.01-.04-.4-.03-.41.02-.08.31-.11.63-.15.94,0,.04.03.08.03.12-.02.39-.02.78-.08,1.16,0,.04-.42.07-.43.05-.11-.41-.2-.82-.27-1.24-.02-.12.07-.25.06-.37-.05-.81-.15-1.54-1.31-1.22-.65.18-.85-.21-.91-.82-.05-.44-.31-.85-.46-1.28-.09-.24-.16-.49-.2-.74-.03-.22.02-.45-.01-.66,0-.03-.37-.08-.43,0-.13.18-.3.47-.23.62.3.66,0,.99-.59,1.04-.78.07-.81-.47-.76-1.09.06-.73-.14-1.23-1.07-1.02-.88.2-1.17-.23-1.15-1.11.02-1.07-.05-2.16-.2-3.22-.04-.28-.63-.77-.81-.71-.97.35-1.15-.11-1.04-.89.11-.8-.24-1-.99-.99-1.2.02-2.39-.05-3.59-.12-.64-.03-.84-.34-.64-1.01.53-1.78.48-1.83-1.32-1.78-.48.01-.97.13-1.45.19.24.39.46.79.71,1.18.64.99.44,1.43-.7,1.48-1.07.05-2.15.01-3.22.1-.3.02-.75.3-.82.54-.18.64-.25,1.33-.26,2.01-.04,1.7-.03,3.39-.03,5.09-.01,6.12,0,12.24-.04,18.36-.01,1.83-.26,3.65-.23,5.48.05,2.9.34,5.81.33,8.71-.01,2.74-.32,5.48-.43,8.22-.05,1.24.08,2.49.12,3.74,0,.14-.09.29-.15.44-.07-.12-.2-.24-.21-.37-.19-1.68-.35-3.36-.55-5.04-.06-.55-.2-1.09-.3-1.64-.14.57-.39,1.15-.39,1.72-.03,4.7-.05,9.39.02,14.09.04,2.7.33,5.39.37,8.08.03,2.32-.12,4.65-.21,6.98-.03.81.05,1.43,1.06,1.66.36.08.79.77.83,1.21.16,1.79.66,2.25,2.34,1.86.83-.2,1.39-.66,1.01-1.62-.3-.75-.17-1.23.68-1.35.84-.11,1.1-.62,1.08-1.39-.02-1.12,0-2.25,0-3.37,0,0-.02,0-.03,0,0-1.21-.02-2.42,0-3.62.01-.65.18-1.13,1.05-1,.3.05.66-.29.99-.45-.34-.14-.68-.29-1.02-.43-.18-.07-.36-.12-.54-.18.18-.11.35-.3.54-.32.9-.11,1.81-.24,2.72-.26,4.2-.12,8.41-.19,12.61-.3,1.48-.04,1.47-.06,1.4-1.55-.03-.56-.19-1.27.68-1.36,2.9-.27,5.8-.51,8.7-.76.83-.07,1.07.45,1.12,1.16.08,1.2.17,2.39.29,3.58.02.22.15.43.23.65.09-.23.26-.45.27-.68.02-1.69,0-3.39.02-5.08,0-.19.17-.39.26-.58.09.17.24.33.25.5.38,4.8.75,9.59,1.12,14.39.01.13.09.26.14.39.04-.11.1-.22.1-.33.06-2.49.12-4.97.19-7.46,0-.16.12-.32.18-.48.07.14.18.27.19.41.26,3.42.51,6.85.75,10.28.04.54-.07,1.15.81,1.03.72-.1,1.03-.45.89-1.19-.08-.45-.16-.9-.14-1.35,0-.18.27-.35.42-.53.14.17.38.33.4.52.25,1.79.52,3.58.67,5.37.14,1.74.12,3.49.2,5.24,0,.2.17.4.26.6.08-.21.22-.42.23-.63.02-1.75,0-3.49.02-5.24,0-.27.23-.53.36-.79.12.24.32.47.33.72.28,3.98.54,7.96.82,11.93.02.25.18.48.27.72.06-.22.18-.44.18-.66-.04-2.58-.11-5.15-.14-7.73,0-.27.23-.53.35-.8.11.24.3.48.32.72.27,5.69.51,11.37.8,17.06.02.39.33,1.05.57,1.09.71.09.95-.41.93-1.13,0-.48.23-.95.35-1.43.12.49.33.99.33,1.48,0,.75.09,1.37,1.02,1.37,2.53,0,5.06-.01,7.58-.09.34-.01.93-.43.96-.71.21-1.97.4-3.96.39-5.94-.01-2.28-.23-4.57-.37-6.85-.18-2.9-.35-5.81-.56-8.71Zm-55.88-10.37c-.02.17-.21.33-.32.49-.1-.16-.28-.32-.29-.48-.03-1.32-.04-2.65-.03-3.97,0-.15.2-.31.31-.46.12.15.32.3.33.46.07.66.08,1.32.12,2.18-.03.46-.06,1.12-.14,1.78Zm18.65-46.71c.2.3.4.59.68,1.02-.31.36-.53.62-.75.88-.23-.35-.62-.7-.64-1.07-.02-.27.46-.56.71-.84Zm-12.03,17.15c-.04,1.9-.32,3.8-.5,5.69-.01.13-.1.24-.16.37-.02-.12-.06-.24-.06-.36,0-.62,0-1.25,0-1.93-.15-2.72-.34-5.49-.42-8.27-.03-.93.22-1.87.31-2.81.05-.57.01-1.16.08-1.73.03-.31.19-.6.29-.9.1.33.28.66.3.99.04.7-.01,1.4,0,2.1.05,2.28.21,4.56.16,6.84Zm19.68,5.56c-.03.4-.26.81-.47,1.16-.04.07-.63-.07-.64-.13-.02-.39-.05-.83.11-1.16.43-.85.11-1.29-.7-1.44-.68-.13-1.15.15-1.09.95.03.33.09.66.12.99.07.72-.23,1.09-1,1.08-.66,0-1.33.07-1.99.09-.62.02-1.25,0-1.87,0,0-.04,0-.09,0-.13-1.82.15-3.63.29-5.45.46-.21.02-.4.17-.6.25.19.05.39.08.57.15.36.16.71.34,1.07.51-.35.19-.68.52-1.04.54-1.62.12-3.24.15-4.86.21-.61.02-1.04-.11-1.06-.87-.16-4.7-.76-9.42-.42-14.08.49-6.56.28-13.1.37-19.64,0-.25,0-.5.02-.75.14-1.9.44-2.16,2.37-1.93.25.03.47.27.7.41-.18.19-.33.45-.55.57-.2.11-.49.05-.73.11-.28.07-.56.19-.84.29.27.06.54.16.81.16,3.34.01,3.5.17,3.56,3.6,0,.46-.04.92.02,1.37.03.21.23.4.35.61.18-.2.49-.39.51-.6.03-.48-.12-.98-.12-1.47,0-.25.17-.49.26-.74.15.24.37.47.43.74.06.27-.05.57-.07.87-.07,1.12.2,1.36,1.32,1.32.25-.01.72.2.74.35.22,1.73.46,3.47.51,5.21.03.93.25,1.15,1.14.99,1.54-.27,1.62-.16,1.73,1.37.17,2.32.32,4.65.5,6.97.01.17.16.33.25.49.03-.16.08-.32.08-.48.04-1.82.07-3.65.13-5.47,0-.23.14-.45.22-.68.12.22.34.43.36.66.25,3.52.47,7.04.73,10.55.02.26.27.5.42.75.14-.27.4-.53.4-.8.02-1.12-.06-2.24-.06-3.37,0-.22.14-.44.21-.66.14.21.37.42.4.64.18,1.77.4,3.54.44,5.32.02.99.25,1.27,1.22.99,1.19-.35,1.48-.1,1.51,1.16.02.83.06,1.67-.01,2.5Zm6.54,13.25c-1.98.06-3.97.07-5.96.06-.16,0-.32-.21-.47-.32.19-.11.38-.31.58-.32.99-.03,1.99-.02,2.98-.02,0-.04,0-.07,0-.11.91-.06,1.82-.14,2.73-.15.24,0,.48.21.72.32-.19.19-.38.53-.58.54Zm17.28,12.25c0,.08-.14.15-.22.23-.04-.23-.07-.45-.11-.68.03,0,.06,0,.08-.01-.06-.69-.14-1.39-.16-2.08,0-.16.18-.33.29-.5.1.15.3.31.3.46-.03.86-.1,1.72-.18,2.58Z"/>
  <path d="m39.2,54.06s0,.02,0,.04c0-.03,0-.03,0-.04Z"/>
  <path d="m101.66,51.86c-.12-1.48-.16-1.45-1.71-1.33-.34.03-.99-.2-1.02-.39-.18-1.12-.21-2.26-.31-3.4-.02-.27-.06-.55-.14-.81-.02-.05-.41-.07-.43-.02-.11.29-.2.6-.22.9-.01.19.14.39.16.6.07.52.08,1.16-.67.86-.23-.09-.23-.95-.19-1.44.05-.71,0-1.27-.88-1.32-2.32-.11-4.64-.3-6.95-.29-1.82,0-3.63.28-5.45.36-1.41.07-1.66.3-1.26,1.64.18.59.22.98-.54,1.03-1.53.1-3.06.21-4.58.32-.45.03-.92.06-1.35.19-.24.07-.41.34-.62.53.23.13.46.38.68.38.57,0,1.15-.14,1.72-.17.14,0,.3.19.45.29-.13.08-.25.22-.38.24-1.66.23-3.33.55-5,.61-.81.02-1.08.13-.95.91.16.99-.34,1.19-1.23,1.18-1.61-.03-3.23.08-4.84.09-.87,0-1.17.3-1.01,1.22.27,1.51-.05,1.8-1.55,1.71-.25-.01-.52-.11-.74-.05-.27.08-.49.3-.74.45.26.15.51.4.78.43.53.05,1.08-.04,1.61-.02.13,0,.25.17.37.27-.12.08-.23.22-.36.24-1.14.16-2.27.37-3.42.44-2.37.15-4.74.33-7.11.29-3.65-.06-7.29-.29-10.94-.49-.4-.02-.78-.26-1.18-.4.36-.15.72-.29,1.08-.44.2-.08.39-.18.58-.28-.2-.09-.42-.15-.61-.26-.41-.24-1.11-.47-1.16-.78-.19-1.35-.29-2.73-.24-4.09.07-2.14.31-4.27.42-6.4.05-.87,0-1.68,1.28-1.31.17.05.42-.22.64-.35-.2-.15-.38-.33-.6-.45-.09-.05-.27.08-.36.04-.22-.1-.42-.26-.63-.4.21-.13.47-.4.61-.35,1.24.43,1.22-.46,1.26-1.21.06-1.07.03-2.15.11-3.23.02-.22.31-.58.51-.6,1.1-.12,2.21-.1,3.3-.23.38-.05.95-.35,1.04-.65.22-.72.19-1.52.28-2.28.04-.29.13-.58.2-.87.09.28.17.56.27.83.13.34.29.67.44,1.01.2-.36.58-.73.55-1.06-.09-1,.26-1.25,1.22-1.16.33.03,1.04-.57,1-.67-.38-1,.07-1.84.36-2.73.17-.51.23-1.05.34-1.58.1.55.18,1.1.29,1.65.04.19.13.36.2.54.2-.11.47-.18.58-.35.12-.19.14-.48.12-.71-.1-.99.4-1.2,1.29-1.16,1.03.05,2.07-.03,3.11-.09.18-.01.34-.24.51-.37-.18-.08-.35-.22-.53-.23-1.08-.05-2.16-.06-3.23-.12-.2-.01-.39-.18-.59-.28.21-.09.41-.25.62-.26,1.2-.08,2.41-.1,3.61-.2,2.1-.17,2.1-.18,2.31-2.32.03-.29.03-.64.19-.84.2-.25.54-.49.84-.52.99-.09,1.98-.05,2.97-.12.27-.02.52-.28.79-.42-.28-.17-.54-.44-.84-.48-1.35-.22-2.71-.48-4.07-.52-2.11-.06-4.22.04-6.33.11-.21,0-.41.31-.62.48.26.15.51.41.78.43.4.03.82-.17,1.23-.16.21,0,.42.25.62.39-.21.14-.42.37-.64.39-.45.03-.91-.13-1.36-.09-1.64.15-3.28.4-4.92.51-1.6.1-1.65.04-1.62,1.67.02.94-.24,1.31-1.28,1.29-1.74-.02-3.48.16-5.22.28-.2.01-.39.22-.58.33.19.13.38.35.57.36.87.05,1.74.03,2.6.07.17,0,.34.14.52.22-.11.1-.22.28-.34.29-1.64.15-3.28.32-4.92.39-.85.04-1.73-.15-1.24,1.21.05.15-.05.41-.16.55-.54.67-.7,1.38-.4,2.21.19.52,0,.65-.62.66-.97.02-1.95.31-2.9.55-.14.03-.26.41-.27.64-.1,1.42-.08,1.38-1.59,1.17-.34-.05-.99.23-1.06.47-.25,1-.3,2.05-.5,3.07-.05.24-.54.63-.6.59-1.33-.89-1.02.29-1.09.88-.21,1.79-.38,3.59-.58,5.38-.01.11-.1.21-.15.31-.07-.12-.19-.24-.19-.35.02-.82.1-1.65.07-2.47,0-.26-.3-.51-.46-.77-.16.19-.44.37-.47.58-.17,1.49-.41,2.98-.4,4.47.03,4.07.17,8.14.3,12.22,0,.22.26.44.39.66.15-.21.4-.41.42-.63.07-.94.06-1.89.1-2.84,0-.15.08-.31.13-.46.07.08.2.16.21.24.2,1.85.42,3.71.57,5.56.05.59.08,1.03.83.81,1.04-.31,1.24.26,1.24,1.11,0,1.54.11,1.66,1.64,1.35.78-.16,1.14-.04.96.83-.14.71.24,1.33.87,1.19,1.52-.33,1.55.39,1.32,1.49-.18.86.1,1.3,1.08,1.35,2.35.12,4.69.35,7.04.55.15.01.29.09.44.13-.17.05-.34.14-.51.15-1.77.04-3.55.06-5.32.12-.19,0-.37.25-.55.38.19.13.38.35.58.37.7.07,1.41.08,2.12.08,6.53,0,13.07,0,19.6-.02.3,0,.6-.29.9-.44-.28-.13-.56-.37-.84-.38-1.45-.05-2.9-.06-4.35-.06-1.08,0-2.17.07-3.25.07-.2,0-.41-.15-.62-.23.22-.07.44-.2.66-.2.83-.02,1.67.05,2.5,0,2.32-.12,4.63-.36,6.94-.4,1.94-.03,2.05-.03,1.82-1.91-.11-.86.1-1.19,1.03-1.2,1.7-.03,3.4-.19,5.1-.35.25-.02.48-.35.71-.53-.25-.1-.49-.28-.74-.29-1.11-.03-2.23-.01-3.35-.03-.15,0-.3-.08-.45-.12.13-.06.26-.16.4-.18,2.44-.33,4.89-.64,7.33-.99.2-.03.36-.35.54-.54-.22-.1-.46-.3-.66-.28-.72.08-1.44.27-2.16.34-.19.02-.4-.28-.6-.44.17-.13.33-.36.52-.38,1.81-.22,3.63-.37,5.44-.61.26-.03.49-.4.73-.61-.31-.27-.59-.6-.94-.79-.12-.07-.41.23-.65.28-.32.08-.8.23-.96.08-.22-.21-.37-.77-.23-.99.16-.26.63-.39.99-.44.4-.06.82.07,1.23.04,3.47-.27,6.94-.53,10.41-.86,1.02-.1,1.32.27,1.28,1.24-.18,3.53-.31,7.06-.48,10.59-.01.22-.14.44-.22.66-.09-.24-.26-.48-.27-.73-.1-2.41-.17-4.83-.25-7.24,0-.13-.12-.27-.18-.4-.08.12-.22.23-.23.35-.09,1.19-.15,2.39-.22,3.58-.15,2.65-.29,5.3-.44,7.94-.03.5-.12,1-.8.53-.64-.44-.86.03-.91.49-.13,1.22-.28,2.45-.22,3.67.03.76-.21.85-.83.82-.61-.04-1.24-.05-1.85.02-1.16.12-2.32.3-3.47.48-.19.03-.36.15-.54.22.2.09.39.24.6.25.85.05,1.71.04,2.56.09.16,0,.31.21.46.32-.15.11-.28.31-.44.32-3.09.28-6.18.53-9.27.81-.3.03-.58.27-.87.42.28.09.57.29.83.27.84-.09,1.06.52,1.04,1.07-.01.25-.64.6-1.03.67-1.13.2-2.28.26-3.42.42-.21.03-.39.24-.59.37.21.16.41.45.62.46.58.03,1.16-.07,1.74-.07.17,0,.34.19.51.3-.15.11-.28.31-.44.33-1.29.15-2.6.23-3.88.42-.25.04-.67.56-.62.69.48,1.14-.25,1.06-.97,1.05-2.21-.04-4.41-.07-6.62-.1-1.17-.02-2.33,0-3.5-.05-.27-.01-.53-.25-.8-.38.25-.1.49-.23.75-.29.2-.04.41.01.62,0,2.71-.07,5.41-.13,8.12-.22.28,0,.56-.23.83-.35-.27-.06-.53-.18-.8-.18-4.95.03-9.9.06-14.85.12-.2,0-.41.26-.61.39.19.12.37.31.58.34.73.09,1.48.13,2.21.19.11,0,.22.06.33.09-.11.04-.22.1-.34.11-1.61.21-3.21.47-4.83.6-.68.06-.95.23-.95.95.03,2.57,0,5.15,0,7.73,0,.59-.08,1.19.85,1.15.78-.03.97-.41,1.03-1.1.05-.52.28-1.01.43-1.52.06.55.22,1.1.17,1.64-.08.78.22,1.24.96,1.31,1.47.14,2.95.19,4.43.3.23.02.45.11.67.17-.25.07-.5.19-.74.19-.91-.02-1.83-.12-2.74-.12-.21,0-.42.3-.64.47.15.19.27.45.47.54.29.13.64.17.97.19,1.16.06,2.33.16,3.5.13,3.53-.08,7.06-.21,10.6-.35.23,0,.45-.23.68-.35-.24-.09-.48-.23-.73-.26-1.02-.09-2.05-.14-3.07-.22-.11,0-.22-.09-.33-.14.08-.07.15-.19.24-.2,1.67-.26,3.33-.61,5-.71.94-.05,1.14-.28,1.02-1.17-.23-1.58-.14-1.61,1.45-1.65,3.78-.11,7.55-.22,11.33-.38.54-.02,1.08-.3,1.62-.46-.56-.15-1.11-.29-1.66-.45-.17-.05-.32-.17-.48-.25.13-.08.25-.22.39-.23,1.03-.11,2.06-.18,3.08-.3.97-.11,1.94-.25,2.91-.4.12-.02.21-.21.31-.32-.13-.08-.25-.22-.39-.23-.2-.02-.43.11-.61.05-.31-.1-.58-.31-.87-.47.27-.2.53-.55.81-.56,1.67-.1,1.83-.26,1.42-2-.16-.68.11-.78.68-.82.89-.06,1.79-.15,2.67-.32.24-.05.61-.47.57-.65-.32-1.52.46-1.48,1.55-1.25.52.11,1.49.11,1.25-.69-.42-1.44.44-1.26,1.23-1.21.59.04.82-.12.86-.73.12-1.82.29-3.64.46-5.45.02-.21.16-.4.25-.6.06.22.18.45.17.67-.01.78-.1,1.57-.08,2.35,0,.22.28.44.44.66.1-.21.26-.41.29-.62.22-1.88.42-3.77.61-5.65.11-1,.46-1.24,1.4-.76.76.39,1.13.19,1.2-.57.21-2.19.45-4.38.54-6.57.09-2.41.02-4.83.02-7.25.1,0,.2,0,.31-.01-.23-3.1-.45-6.21-.71-9.31Zm-61.51,2.3c-.07.37-.32.72-.49,1.07-.16-.36-.32-.71-.47-1.07-.02-.05,0-.11,0-.1,0-1.59-.02-3.02.02-4.44,0-.25.27-.49.41-.73.12.27.28.53.36.81.05.18-.11.5-.02.57,1,.86.53,1.74.16,2.68-.14.35.09.82.02,1.21Zm15.87,4.86c-1.9.13-3.81.26-5.71.39,0-.06,0-.11,0-.17-1.25,0-2.5.02-3.74-.02-.27,0-.54-.24-.81-.37.25-.17.5-.5.74-.49,2.7.09,5.4.23,8.1.36.5.02.99.07,1.49.11.31.03.61.07.92.1-.32.03-.65.07-.97.09Zm31.55-3.01c.63-.03,1.27.05,1.9.08-.61.18-1.22.36-1.83.53-.02-.04-.04-.09-.06-.13-.54-.08-1.09-.15-1.63-.23.54-.09,1.09-.24,1.63-.26Zm1.34,2.4c-.66.04-1.33.01-1.99.01,0,.03,0,.06,0,.09-2.4,0-4.81,0-7.21-.01-.23,0-.46-.19-.69-.29.21-.07.42-.19.63-.2,2.89-.21,5.79-.4,8.68-.6.25-.02.56-.14.73-.04.26.16.43.48.64.73-.26.11-.52.29-.79.31Z"/>
  <path d="m750.27,61.89c-.72.18-1.24-.19-.94-.87.4-.9-.2-.95-.69-1.01-1.17-.16-2.36-.25-3.54-.31-.62-.03-.98-.1-.71-.86.26-.75-.17-.96-.85-.93-1.43.06-1.57-.09-1.34-1.53.11-.67.09-1.15-.78-1.2-1.07-.06-2.13-.22-3.2-.26-.68-.03-1.03-.22-.87-.97.16-.74-.18-.91-.9-.9-1.83.01-3.65-.07-5.48-.13-.55-.02-.93-.26-.61-.88.44-.85-.24-.97-.73-1.02-1.1-.12-2.21-.15-3.32-.16-1.07-.02-1.28-.27-.97-1.26.39-1.24.25-1.47-1.04-1.54-1.37-.07-2.75-.09-4.12-.14-1.74-.07-3.48-.14-5.22-.24-.19-.01-.38-.24-.56-.37.19-.12.37-.28.58-.35.14-.05.34.04.49,0,.2-.07.38-.22.57-.33-.2-.1-.4-.25-.61-.29-.89-.15-1.81-.2-2.68-.44-.3-.08-.7-.58-.71-.89-.05-1.77.01-3.55.02-5.32,0-.81.31-1.12,1.17-.94.25.06.84-.28.86-.48.19-1.87.33-3.76.42-5.64.12-2.5.17-4.99.27-7.49,0-.23.15-.46.23-.69.13.22.38.45.38.67,0,1.16-.06,2.33-.09,3.49-.05,1.96-.1,3.91-.11,5.87,0,.23.23.46.36.69.1-.21.25-.41.3-.63.06-.28.05-.58.05-.87,0-2.46,0-4.91,0-7.37.1,0,.2,0,.3,0,0-2.17.02-4.33-.01-6.5-.01-.95-.14-1.9-.23-2.85-.01-.14-.13-.27-.2-.41-.03.11-.09.22-.1.33-.17,1.96-.32,3.92-.5,5.88-.01.17-.15.32-.23.48-.03-.16-.08-.32-.09-.48-.06-1.45-.06-2.91-.16-4.36-.21-2.81-.47-5.62-.75-8.42-.04-.37-.36-.72-.55-1.08-.11.36-.22.72-.34,1.07-.08.23-.18.46-.26.69-.09-.21-.23-.41-.27-.63-.14-.89-.21-1.8-.39-2.68-.04-.19-.4-.42-.63-.44-.31-.03-.64.13-.97.18-.98.15-1.29-.18-1.33-1.15-.01-.27-.37-.63-.65-.74-.44-.18-.95-.2-1.43-.27-1.02-.15-2.06-.46-3.06-.37-1.13.1-1.63.08-1.31-1.29.27-1.16-.2-1.58-1.41-1.62-1.08-.03-2.17-.11-3.24-.07-2.99.1-5.98.23-8.97.38-1.45.07-2.9.2-4.34.38-.26.03-.48.42-.72.64.22.21.41.59.65.61.91.11,1.84.1,2.77.16.17.01.34.17.51.27-.17.11-.34.31-.52.33-.86.07-1.74,0-2.58.16-.36.07-.71.54-.92.92-.14.25,0,.66-.04.98-.03.17-.2.32-.31.48-.11-.16-.3-.32-.31-.48-.06-1.11-.07-2.22-.12-3.32,0-.15-.15-.3-.23-.45-.08.17-.22.33-.23.5-.02.45.05.91.01,1.36-.17,1.98-.56,3.96-.52,5.94.11,5.53.4,11.05.63,16.58,0,.21.15.41.23.61.04-.23.12-.46.13-.69.05-3.91.08-7.81.13-11.72,0-.22.11-.44.16-.66.08.21.18.41.23.62.04.16,0,.33.01.5.38,5.81.75,11.61,1.14,17.42.01.18.12.36.18.54.02-.2.07-.39.07-.59-.01-2.37-.04-4.73-.03-7.1,0-.26.24-.52.37-.78.09.25.25.5.27.76.36,5.73.71,11.46,1.06,17.18.01.18.08.35.13.53.02-.2.05-.41.07-.61.1-1.48.18-2.97.31-4.45.05-.52.25-1.02.38-1.52.05.51.13,1.02.15,1.53.17,4.9.33,9.8.49,14.71.06,1.76.07,1.82,1.77,1.58.76-.11,1.09.11,1.13.88.11,1.78.23,3.57.39,5.35.03.3.27.58.41.87.18-.33.49-.64.53-.98.07-.66-.03-1.33-.03-1.99,0-.17.08-.34.13-.51.05.15.12.3.13.46.26,3.97.51,7.95.77,11.92.01.22.12.44.18.65.14-.22.39-.42.41-.65.11-1.02.15-2.05.23-3.08.01-.17.14-.33.22-.49.08.17.21.34.22.51.1,1.4.2,2.81.26,4.22.11,2.62.24,5.23.29,7.85.02,1.3.24,1.54,1.53,1.25.12-.03.25-.17.34-.14.31.1.6.25.89.39-.22.21-.42.54-.68.61-.34.1-.75-.04-1.11,0-.22.03-.42.23-.63.35.2.08.4.19.61.23.11.02.23-.07.36-.09,1.38-.22,1.71.06,1.81,1.44.02.34.28.67.42,1.01.12-.34.26-.67.37-1.02.09-.3.13-.61.2-.91.15.29.46.6.44.87-.12,1.24.49,1.5,1.57,1.43,1.66-.11,3.32-.17,4.98-.16.69,0,.91-.27.91-.86.03-3.25.16-6.5.06-9.74-.11-3.66-.43-7.31-.67-10.96-.03-.41-.18-.81-.28-1.22-.07.39-.19.78-.19,1.17.05,2.46.14,4.91.17,7.37,0,.31-.25.62-.38.94-.12-.26-.35-.52-.36-.79-.15-3.24-.26-6.49-.4-9.73-.04-.83.09-1.31,1.13-1.31,2.37-.01,4.74-.15,7.11-.27.29-.01.57-.2.85-.31-.3-.11-.59-.3-.89-.32-1.24-.08-2.48-.11-3.72-.18-.19-.01-.38-.12-.57-.19.16-.08.31-.23.47-.24,2-.11,3.99-.21,5.99-.29.58-.03.89.24.7.85-.28.86.17,1.03.89,1,.42-.02.86-.13,1.24-.01.31.09.8.53.76.69-.24.93.33.95.95,1.02,1.57.17,3.13.35,4.7.57.22.03.4.3.6.47-.2.12-.39.28-.61.36-.14.05-.33,0-.49-.04-.65-.14-1.05.01-1.08.78-.02.67.2.99.92,1.01,2.4.08,4.81.2,7.21.34.32.02.63.23.95.36-.32.16-.63.33-.97.46-.14.05-.34-.04-.49,0-.29.07-.57.2-.86.3.29.12.57.32.87.34,3.49.21,6.97.4,10.46.58.54.03.92.11.65.81-.35.9.26.96.91.96,2.5-.02,5-.07,7.49-.03.81.01,1.03-.3,1-1.02-.07-1.74-.11-3.49-.17-5.24-.02-.68-.33-.98-1.05-.81Zm-59.67-11.15c-.17-.4-.46-.79-.48-1.19-.02-.53.17-1.06.28-1.6.19.5.37,1,.55,1.48-.14.5-.24.9-.35,1.3Zm14.29-25.39c-.03.58,0,1.17-.09,1.74-.04.26-.29.5-.44.75-.17-.24-.48-.47-.5-.73-.12-1.18-.14-2.37-.25-3.55-.02-.22-.3-.42-.47-.63-.14.22-.37.42-.4.65-.1.82-.12,1.66-.19,2.48-.1,1.17-.17,2.35-.36,3.51-.04.21-.64.52-.92.47-1.07-.19-1.85-.22-1.59,1.27.04.24-.37.56-.57.84-.15-.31-.41-.61-.45-.93-.21-2.05-.36-4.1-.54-6.16.05,0,.1-.01.16-.02-.2-2.15-.38-4.3-.6-6.45-.03-.29-.23-.55-.36-.83-.1.29-.3.58-.3.87,0,.88.43,1.81-.56,2.5-.55.39-.92.51-.97-.31-.09-1.37-.16-2.74-.14-4.1,0-.25.46-.6.77-.71.28-.1.65.07.98.1,1.3.09,1.79-.34,1.89-1.63.07-.91.11-1.82.2-2.73.02-.21.18-.4.28-.6.16.19.46.37.47.57.06,1,.08,2,.04,2.99-.04.9.22,1.37,1.21,1.14.92-.22,1.26.22,1.1,1.09-.17.94.23,1.22,1.1,1.07.29-.05.58-.04.87-.06.68-.06,1,.2.96.93-.13,2.16-.22,4.31-.32,6.47Zm6.29,18.1c-.26.35-.7.57-1.06.85-.21-.3-.53-.58-.62-.91-.12-.47-.19-1.01-.07-1.47.11-.43.49-.79.75-1.18.35.34.74.64,1.03,1.02.12.16.02.48.02.73.01,0,.03,0,.04,0-.02.33.08.74-.09.96Z"/>
  <path d="m315.09,96.57c-.82.08-1.11-.18-1.12-1.01-.03-2.75-.18-5.49-.19-8.24-.02-5,.04-9.99.04-14.99,0-5.36.02-10.73-.09-16.09-.11-5.61-.36-11.21-.56-16.81,0-.15-.1-.29-.16-.43-.07.13-.19.25-.2.39-.09,2.4-.18,4.81-.23,7.21-.02.96.09,1.91.11,2.87,0,.23-.11.46-.17.68-.07-.21-.19-.41-.2-.62-.22-4.07-.42-8.13-.67-12.2-.02-.34-.34-.66-.53-.99-.16.35-.45.7-.45,1.05-.01,1.04.11,2.08.14,3.11,0,.25-.15.5-.22.75-.09-.25-.23-.5-.24-.75-.05-1.08-.06-2.16-.07-3.24-.01-.66-.25-1.2-.98-1.2-2.03,0-4.06,0-6.09.11-.3.02-.65.52-.84.88-.12.21.08.59,0,.85-.08.26-.33.47-.51.71-.15-.26-.33-.51-.43-.79-.05-.13.13-.37.06-.48-.2-.32-.47-.59-.71-.88-.25.27-.63.49-.71.8-.17.63-.22,1.29-.25,1.95-.15,3.41-.27,6.81-.43,10.22-.01.29-.24.57-.36.86-.1-.28-.26-.55-.28-.83-.07-1.62-.09-3.24-.14-4.86,0-.12-.05-.23-.07-.35-.08.11-.21.21-.22.33-.18,1.64-.41,3.29-.47,4.94-.03.68-.11,1-.84,1.04-3.07.16-6.15.33-9.22.53-.35.02-.68.24-1.02.37.37.13.73.29,1.11.38.19.05.41-.03.62-.03,2.07-.05,4.15-.1,6.22-.13.15,0,.3.08.46.13-.13.07-.25.2-.38.21-2.36.17-4.72.41-7.09.47-3.24.09-6.48.02-9.72.07-.93.01-1.12-.42-1.11-1.22.02-3.62,0-7.25,0-10.87-.04,0-.08,0-.12,0,.16-3.99.31-7.99.49-11.98.01-.31.25-.61.38-.92.13.33.34.65.36.98.07,1.03.01,2.08.13,3.11.04.36.45.67.69,1,.22-.31.6-.61.63-.94.15-1.74.34-3.49.26-5.23-.15-3.32-.46-6.63-.71-9.95,0-.12-.05-.24-.07-.36-.05.12-.14.24-.15.36-.26,2.72-.49,5.44-.76,8.16-.03.29-.24.56-.36.84-.12-.28-.28-.54-.36-.83-.05-.19,0-.41,0-.62-.17-3.19-.34-6.39-.55-9.58-.02-.28-.36-.72-.61-.77-.89-.17-1.81-.24-2.73-.28-.6-.03-.95.31-.85.94.17,1.08-.32,1.31-1.3,1.14-1.31-.23-1.41-.08-1.47,1.23-.09,1.74-.23,3.47-.38,5.2-.02.2-.23.38-.35.57-.07-.21-.19-.42-.2-.64-.04-.91-.03-1.82-.08-2.72,0-.14-.22-.27-.34-.41-.09.12-.25.24-.27.37-.22,1.51-.5,3.01-.6,4.52-.12,1.99-.12,3.99-.13,5.99-.02,3.66-.01,7.33-.03,10.99,0,.26-.16.52-.25.77-.1-.23-.29-.47-.29-.7-.04-5.74-.06-11.48-.11-17.22,0-.2-.17-.4-.27-.6-.11.2-.32.39-.33.59-.12,2.37-.27,4.73-.31,7.1-.08,3.94-.09,7.89-.13,11.83-.05,5.29-.11,10.57-.15,15.86-.01,1.5-.08,1.62-1.54,1.37-.87-.15-1.25.11-1.24,1.02.03,2.62.05,5.24.04,7.86,0,.82.36,1.14,1.16,1.04q1.69-.22,1.67,1.53c0,.38-.01.75-.02,1.12-.03,1.62-.13,1.71-1.61,1.13-.9-.35-1.25-.09-1.22.85.03.92.03,1.83.04,2.75,0,1.73.15,1.87,1.87,1.67.58-.07,1.02-.03,1.03.68.02,2.58,0,5.16.04,7.73.04,2.28.14,4.57.25,6.85,0,.19.24.36.36.55.1-.2.26-.39.28-.6.05-.36,0-.74.01-1.1.06-1.77.13-3.54.19-5.31.02-.45,0-.91.02-1.36,0-.03.13-.06.2-.09.05.48.13.96.15,1.44.09,2.24.13,4.47.27,6.71.02.28.55.75.86.76,1.87.11,3.74.09,5.61.15.86.03,1.2-.29,1.18-1.17-.01-.49.22-.98.34-1.47.11.52.21,1.04.34,1.55.06.24.2.47.3.7.14-.21.38-.42.4-.64.09-1.03.15-2.07.17-3.11.13-8.44.23-16.88.38-25.31,0-.38.32-.76.48-1.14.21.36.56.69.62,1.07.16,1.02.18,2.06.31,3.09.03.23.25.44.38.67.09-.25.23-.49.25-.75.06-.95.14-1.92.07-2.87-.08-1.12.47-1.37,1.42-1.34,1.08.03,2.16.01,3.25,0,4.96-.01,9.91-.02,14.87-.05.77,0,1.02.32,1.02,1.05,0,2.33.03,4.67.04,7,0,1.3.17,1.51,1.44,1.2,1.14-.28,1.44.15,1.4,1.18-.08,1.83-.21,3.66-.17,5.49.06,3.32.23,6.63.33,9.95.15,4.77.29,9.55.45,14.32,0,.14.09.28.14.42.06-.14.11-.3.19-.43.2-.31.42-.61.63-.91.13.35.38.7.37,1.05-.02.64.09,1.03.82,1.12,1.33.16,1.27.17.94,1.54-.08.33.29,1.09.5,1.11,1.8.18,3.6.74,5.41.06.68-.26.99-.63.77-1.43-.1-.39.02-1.06.3-1.28.52-.42.98-.73.83-1.5-.02-.11.36-.29.56-.44.1.19.34.47.28.57-.43.68-.09.91.53.97.68.07,1.1-.11,1.1-.94,0-2.07.1-4.14.11-6.21,0-1.64-.09-1.73-1.69-1.57Zm-39.29-20.09c0,.95.02,1.91-.01,2.86,0,.3-.15.6-.23.91-.09-.28-.25-.56-.25-.84-.01-1,0-2,.05-2.99.01-.26.15-.52.24-.78l.42.79c-.07.02-.14.04-.21.06Zm23.33-12.92c-2.33.02-4.66-.04-6.99-.03-3.74.01-7.49.07-11.23.07-.49,0-.98-.26-1.47-.4.47-.11.94-.31,1.41-.31,3.04-.03,6.07-.01,9.11-.01v-.02c3.04,0,6.07-.01,9.11.02.39,0,.78.22,1.18.34-.37.12-.74.34-1.11.35Zm2.9,2.67c-.09-.58-.18-1.16-.26-1.75-.03-.25-.07-.5-.04-.74.04-.29.15-.57.24-.85.16.29.36.56.45.86.07.22-.02.49-.03.74.02,0,.05.01.07.02-.14.57-.28,1.15-.42,1.72Zm10.84,13.97c0,.19-.23.37-.35.55-.08-.18-.21-.36-.22-.54-.06-1.91-.11-3.82-.13-5.72,0-.22.24-.44.37-.66.08.21.23.43.24.64.03.91.01,1.83.01,2.74.03,0,.06,0,.09,0,0,.99.02,1.99-.02,2.98Zm.05-16.04c-.1.21-.27.39-.4.58-.11-.2-.31-.38-.32-.59-.08-1.08-.11-2.16-.18-3.69.06-1.13.13-2.71.24-4.28.01-.21.2-.41.31-.61.13.22.37.44.37.66.03,2.48.03,4.96.04,7.43,0,.17.02.35-.05.49Z"/>
  <path d="m169.63,92.59c-.65.31-.83-.14-.91-.63-.18-1.2-.32-2.4-.51-3.59-.03-.21-.21-.4-.33-.6-.16.2-.39.38-.46.61-.09.3.05.69-.09.94-.14.25-.51.53-.76.51-.19,0-.49-.44-.52-.71-.2-1.77-.34-3.55-.52-5.32-.03-.31-.16-.61-.28-.89-.01-.03-.49.07-.5.14-.04.33-.02.68.02,1.02.02.15.24.33.2.43-.11.27-.3.51-.46.77-.21-.2-.56-.39-.59-.62-.13-.88-.13-1.78-.25-2.66-.07-.46-.3-.91-.45-1.36-.08.43-.15.87-.26,1.29-.05.18-.17.36-.3.5-.02.03-.33-.1-.35-.19-.2-.91-.48-1.83-.51-2.75-.06-2.49-.05-4.99.01-7.48.02-1.02-.46-1.23-1.31-1.11-.33.05-.66.19-.98.17-.16-.01-.43-.28-.44-.44,0-.18.19-.46.37-.53.21-.07.48.03.73.07,1.41.2,2.02-.41,1.85-1.84-.02-.21-.14-.42-.11-.61.04-.28.18-.54.27-.81.13.25.34.49.36.75.04.45-.09.92-.03,1.36.03.22.32.41.49.61.12-.2.32-.4.34-.61.07-.66,0-1.34.13-1.99.09-.47.2-1.12,1.03-.92.24.06.54-.1.81-.16-.28-.12-.57-.23-.84-.38-.22-.12-.4-.29-.6-.43.23-.15.55-.49.67-.43.99.48,1.11-.15,1.09-.85-.03-1.82-.08-3.64-.17-5.46,0-.2-.32-.38-.49-.56-.1.22-.22.44-.29.67-.09.28-.14.58-.21.87-.12-.29-.2-.62-.37-.88-.23-.35-.5-.88-.81-.93-.98-.17-1.99-.11-2.98-.23-.6-.08-2.01.64-1.27-1.09.04-.09-.25-.3-.33-.48-.18-.43-.39-.87-.48-1.33-.08-.44,0-.92-.04-1.37-.02-.18-.18-.35-.27-.52-.11.19-.32.39-.32.58,0,.54.15,1.07.14,1.61,0,.24-.22.47-.35.71-.21-.21-.56-.4-.6-.63-.09-.57.03-1.17-.06-1.74-.08-.49-.13-1.21-.99-.63-.63.42-.68-.12-.74-.54-.12-.86-.15-1.73-.37-2.57-.08-.3-.6-.73-.87-.7-.95.1-1.18-.39-1.22-1.16-.04-1.03-.06-2.06-.11-3.1-.04-.72-.29-1.11-1.12-.75-1.06.46-1.38.21-1.5-.89-.23-2.29.25-4.65-.57-6.89-.13-.36-.18-.76-.26-1.13-.08.4-.13.81-.24,1.2-.07.25-.23.48-.36.72-.15-.22-.4-.42-.44-.65-.15-.92-.17-1.87-.36-2.78-.05-.26-.59-.66-.79-.61-1.14.33-1.12-.37-1.18-1.13-.1-1.11-.25-2.21-.42-3.3-.02-.12-.32-.29-.46-.27-.16.03-.39.23-.41.39-.03.23.22.53.14.69-.15.3-.41.63-.7.74-.17.06-.66-.23-.72-.44-.24-.86-.44-1.74-.52-2.63-.21-2.4-.36-4.8-.54-7.2-.01-.15-.08-.29-.12-.43-.03.11-.09.23-.1.34-.08,2.36-.15,4.72-.22,7.08,0,.27-.02.55-.03.82-.12-.26-.31-.51-.34-.78-.23-2.35-.41-4.71-.67-7.06-.04-.36-.52-1-.6-.97-1.72.65-1.21-.73-1.21-1.4-.02-1.55-.17-1.74-1.7-1.47-.78.14-1.43.06-1.13-.98.23-.8-.14-.97-.8-.97-.33,0-.66.01-.99-.02-2.47-.19-4.94-.47-7.41-.56-.94-.04-1.95.6-2.83.44-1.01-.19-.99.27-.99.86-.03,4.78-.02,9.57-.06,14.35-.01,1.53-.07,3.06-.23,4.58-.16,1.54-.24,1.57-1.58.94-.78-.36-1.1-.14-1.13.65-.02.62,0,1.25,0,1.87.02,1.69.02,1.73,1.7,1.68.9-.03,1.3.24,1.25,1.2-.07,1.41-.06,2.83-.03,4.25.03,1.37.07,2.75.23,4.11.05.4.49.75.76,1.13.32-.38.73-.71.92-1.14.15-.35.03-.82.04-1.24.01-.83,0-1.67.08-2.5.03-.26.34-.48.53-.72.21.23.51.43.6.69.1.29,0,.65-.02.98-.04.71-.11,1.41-.1,2.11,0,.23.24.46.37.68.09-.21.2-.42.27-.63.04-.11.01-.25.01-.37-.02-3.1.16-6.18.78-9.22.04-.21.15-.41.23-.62.08.21.14.44.25.63.17.28.37.53.56.79.12-.28.35-.56.36-.84.03-1.37.02-2.75,0-4.12,0-.87-.06-1.74-.05-2.62,0-.96.34-1.59,1.48-1.49.87.08,1.75.08,2.62.03.84-.05.92.36.94,1.07.04,1.81.18,3.62.31,5.43.02.21.2.41.31.62.09-.21.25-.41.26-.62.05-.9.03-1.81.08-2.71.01-.21.18-.41.27-.61.12.2.33.4.35.61.11,1.07.16,2.15.26,3.22.2,2.05.42,4.09.65,6.14.03.3.15.58.23.87.27-.09.64-.1.77-.28.14-.2.04-.56.08-.85.03-.21.15-.58.19-.57.33.04.66.15.98.24-.68.9.37,1.49.43,2.28.12,1.77.34,3.53.54,5.3.02.16.15.32.23.47.03-.16.07-.32.08-.48.03-1.74.05-3.48.09-5.22,0-.18.11-.36.17-.54.11.15.29.29.3.44.25,2.89.49,5.78.72,8.66-.15,1.77-.29,3.51-.45,5.24-.02.25-.19.49-.29.73-.08-.22-.13-.46-.24-.67-.11-.2-.28-.37-.43-.55-.17.15-.48.31-.47.45.09,1.51-.94,1.38-1.92,1.37-1.56,0-1.82.24-1.54,1.75.17.91-.13,1.25-.97,1.28-1.87.08-3.74.17-5.61.23-2.48.08-2.48.07-2.61-2.38,0-.04.02-.09,0-.12-.09-.16-.19-.32-.29-.47-.09.17-.25.34-.25.51,0,.62.11,1.25.08,1.86-.01.22-.3.42-.47.63-.16-.2-.46-.4-.47-.62-.08-1.53-.15-3.06-.12-4.59.04-2.02.18-4.04.25-6.06.03-.95-.5-1.34-1.43-1.27-1.08.08-2.16.19-3.23.17-.96-.02-1.2.38-1.18,1.27.05,2.24.03,4.49,0,6.73-.03,2.29-.1,4.58-.16,6.87,0,.17-.13.33-.2.5-.04-.11-.1-.22-.11-.33-.14-2.51-.27-5.03-.41-7.55-.02-.27-.1-.54-.15-.81-.09.25-.25.5-.26.75-.18,3.7-.39,7.4-.47,11.1-.05,2.37.16,4.74.17,7.11,0,2.69-.1,5.39-.1,8.08,0,.33.28.82.56.96.86.43,4.31-1.05,4.51-2,.27-1.31.32-2.67.47-4,.03-.22.14-.42.21-.63.14.17.31.32.41.51.08.14.04.34.11.48.13.26.3.5.46.75.08-.26.21-.51.22-.77.06-1.09.65-1.53,1.72-1.29.48.11.97.17,1.47.22.68.06,1-.25.98-.95-.02-.7-.38-1.02-1.03-.92-.57.09-1.12.4-1.68.4-.4,0-.8-.36-1.19-.56.33-.21.65-.57,1-.6,2.03-.15,4.07-.21,6.1-.32,4.28-.22,8.56-.46,12.83-.67.74-.04,1.5-.03,2.24.04,2.62.24,2.59.25,2.79,2.95.02.33.39.86.67.91,1,.16,2.02.14,3.03.23.31.03.61.17.91.26-.29.05-.59.09-.88.15-.34.07-.69.14-1.02.25-.03,0,.01.49.11.53.32.13.75.3,1.01.18.68-.32.84,0,.88.55.09,1.11.17,2.23.23,3.34.25,4.01.49,8.03.74,12.04.02.24.1.48.15.72.03-.23.09-.46.09-.69-.02-1.95-.08-3.9-.07-5.84,0-.32.26-.64.39-.96.14.31.36.61.39.94.12,1.15.18,2.31.25,3.46.18,2.9.34,5.79.54,8.69.02.23.26.45.39.67.08-.23.19-.45.23-.69.02-.15-.13-.34-.08-.48.07-.21.24-.4.36-.59.18.14.47.25.51.42.22.85.33,1.73.56,2.58.09.31.4.8.6.8.56,0,.77-.35.48-.95-.07-.13.22-.63.38-.65.24-.03.76.3.75.33-.49,1.35,1.52,2.23.69,3.64-.03.05.23.27.36.42.12-.18.33-.36.33-.54,0-.41-.19-.82-.17-1.23,0-.2.28-.4.43-.6.17.15.41.28.48.47.08.22,0,.49-.02.74q-.13,1.59,1.5,1.59c.96,0,1.92.03,2.87-.01.7-.03,1.43-.05,2.07-.29.27-.1.36-.75.48-1.17.01-.04-.32-.26-.49-.25-.24,0-.48.15-.72.23-.11-.31-.21-.61-.32-.92.33-.07.7-.07,1-.22.33-.16.82-.44.85-.7.32-4.03.36-8.06-.19-12.07-.08-.56-.31-.86-.93-.57Zm-27.81-38.97c.01-.24.16-.48.25-.72.07.26.19.51.21.77.03.45,0,.91,0,1.37h0s0,.08,0,.12c-.05.63-.1,1.26-.15,1.89-.09-.64-.2-1.29-.26-1.93-.05-.49-.07-.99-.04-1.49Zm-2.35,18.47c2.36-.02,4.73-.04,7.09-.04.15,0,.3.09.45.13-.15.04-.3.11-.44.11-1.17,0-2.33,0-3.5,0v.04c-1.17,0-2.33,0-3.5,0-.16,0-.32-.05-.48-.08.13-.05.25-.15.38-.15Zm-9.32-7.76s0-.07-.01-.11c-.66.08-1.32.22-1.98.21-.54-.01-1.07-.22-1.61-.34.51-.15,1.02-.44,1.52-.44,1.79,0,3.57.1,5.36.16.57.02,1.15,0,1.72.01-.59.07-1.19.16-1.78.22-1.07.11-2.15.19-3.22.29Zm18.92,10.26c-.77.02-1.54,0-2.31-.01-4.07-.04-8.15-.08-12.22-.14-.22,0-.44-.14-.67-.21.22-.12.43-.33.66-.34,2.41-.17,4.82-.31,7.23-.46,0-.07,0-.13.01-.2,2.43.14,4.85.28,7.28.46.16.01.32.38.42.61.02.04-.25.3-.4.3Z"/>
  <path d="m541.91,48.63c-.1.21-.3.42-.3.63,0,.91.07,1.82.08,2.73,0,.16-.17.32-.26.48-.06-.1-.16-.19-.18-.29-.15-.89-.35-1.78-.42-2.68-.21-2.47-.36-4.95-.56-7.43-.01-.18-.27-.34-.41-.5-.15.13-.4.25-.42.4-.16.85-.25,1.71-.4,2.56-.04.23-.19.45-.29.67-.13-.2-.36-.4-.38-.61-.2-1.71-.31-3.44-.56-5.15-.05-.35-.62-.95-.79-.9-1.11.31-1.2-.31-1.24-1.13-.06-1.37-.15-2.74-.28-4.1-.02-.22-.3-.41-.46-.62-.1.16-.28.32-.28.49-.04,1.46-.04,2.93-.06,4.39,0,.15-.08.3-.12.44-.08-.12-.22-.23-.23-.36-.18-2.18-.41-4.37-.5-6.56-.07-1.55-.07-1.67-1.63-1.49-1.08.13-1.59-.12-1.4-1.32.08-.5.15-1.16-.79-.99-.29.05-.63-.19-.95-.3.3-.1.61-.19.9-.31.25-.11.48-.26.71-.4-.26-.16-.58-.5-.77-.44-1.42.48-1.29-.55-1.36-1.35-.04-.41.12-.86,0-1.24-.09-.28-.54-.7-.72-.65-1.14.34-1.32-.15-1.23-1.14.03-.29-.3-.87-.51-.9-1.74-.21-3.49-.31-5.24-.46-.29-.02-.57-.13-.85-.2.3-.07.6-.11.89-.22.3-.11.58-.29.86-.43-.21-.21-.39-.57-.62-.61-1.63-.24-3.27-.41-4.91-.62-.27-.03-.53-.14-.77-.26-.04-.02.05-.29.07-.44.25.06.51.18.76.18.37,0,1.02,0,1.05-.11.13-.54.15-1.13.05-1.68-.02-.13-.77-.3-1.03-.17-.53.28-.89.26-1.32-.15-.19-.17-.54-.22-.82-.22-2.12.02-4.24.05-6.35.12-.74.03-1.69-.06-2.15.35-.41.37-.28,1.35-.39,2.06,0,.04,0,.09-.01.12-.1.16-.21.31-.32.46-.12-.16-.32-.31-.33-.47-.02-.41.12-.83.06-1.24-.04-.3-.27-.58-.41-.87-.15.26-.38.5-.42.78-.13.9-.27,1.81-.27,2.71,0,1.16-.48,1.43-1.56,1.21-.37-.07-1.21.38-1.19.47.26,1.3-1.33,2.27-.64,3.63.07.14-.14.42-.22.64-.09-.2-.25-.39-.26-.59-.02-.45.1-.92.05-1.37-.03-.22-.31-.41-.48-.61-.17.19-.47.38-.48.58-.11,1.82-.16,3.65-.23,5.47-.02.68.31.97,1,.94,1.17-.05,2.34,0,3.49-.12.3-.03.72-.48.81-.82.2-.75.22-1.55.34-2.33.03-.22.17-.43.25-.64.09.21.26.41.26.62.02.83-.03,1.66-.02,2.49,0,.17.15.34.24.51.11-.14.3-.27.32-.42.17-1.81.38-3.63.45-5.45.04-.85.29-1.26,1.16-1.19,1.52.13,3.05.41,4.56.34,1.37-.06,1.47.51,1.26,1.56-.19.94.05,1.44,1.19,1.27.3-.05.94.45.99.78.25,1.42.2,1.46,1.73,1.25.69-.09,1.06.13,1.1.81.07,1.06.05,2.14.17,3.2.03.29.49.8.65.76,1.25-.26,1.56.31,1.51,1.42-.01.27.33.56.51.84.14-.31.3-.62.39-.94.04-.14-.12-.32-.1-.48.01-.13.13-.26.21-.39.12.08.34.15.36.26.15.84.33,1.68.37,2.53.07,1.34.19,1.49,1.57,1.22.86-.17,1.26-.03,1.16.98-.09.84.12,1.53,1.28,1.21.17-.05.66.4.68.65.1.99.02,1.99.09,2.98.17,2.48.37,4.96.58,7.43.02.2.21.39.32.59.09-.21.23-.42.25-.63.06-.7.07-1.4.11-2.09.03-.64.08-1.27.12-1.91.08.61.16,1.21.23,1.82,0,.04,0,.08.01.12.2,2.26.4,4.53.61,6.79.13,1.41.25,2.82.4,4.22.02.16.19.31.29.47.09-.17.26-.34.26-.51-.04-2.36-.1-4.73-.15-7.09,0-.26.03-.53.09-.79,0-.04.32-.07.33-.05.1.25.21.51.22.77.08,1.95.14,3.91.21,5.86.11,2.7.24,5.4.32,8.1.02.56.07,1.35-.81,1.22-1.29-.19-1.32.46-1.12,1.38.2.89-.09,1.32-1.07,1.34-.86.02-1.72.2-2.57.34-.17.03-.31.23-.46.35.14.13.26.31.42.37.18.07.41,0,.61.05.21.05.4.17.6.26-.19.12-.37.32-.56.34-1.99.17-3.98.3-5.97.44v-.15c-1.46,0-2.92.01-4.38,0-.72,0-1.19-.17-.97-1.13.1-.45-.24-1.01-.38-1.51-.2.22-.38.45-.59.65-.08.07-.23.1-.35.09-.6-.07-1.22-.1-1.8-.26-.26-.07-.55-.36-.64-.62-.05-.14.27-.46.48-.61.15-.1.44,0,.6-.09.25-.16.43-.41.64-.62-.21-.21-.41-.57-.64-.6-.98-.12-1.98-.09-2.96-.23-.36-.05-.93-.36-.98-.63-.26-1.46-.38-2.95-.56-4.42-.06-.51-.15-1.01-.22-1.51-.02.5.03,1.01-.08,1.48-.08.36-.37.67-.57,1-.16-.33-.43-.65-.47-1-.14-1.11-.14-2.23-.31-3.33-.05-.35-.62-.96-.69-.92-1.32.68-1.02-.33-1-.95.06-2.41.29-4.82.21-7.22-.15-4.61-.45-9.22-.72-13.83-.02-.27-.29-.52-.44-.77-.27.17-.6.29-.78.53-.16.21-.14.56-.26.82-.07.16-.26.26-.39.39-.08-.17-.26-.39-.21-.51.4-.93-.29-1.37-.89-1.43-1.13-.12-2.3.01-3.45.1-.15.01-.37.34-.41.55-.12.77-.16,1.55-.26,2.32-.06.47-.17.94-.25,1.41-.13-.47-.24-.95-.38-1.41-.08-.26-.22-.49-.33-.74-.14.26-.38.51-.4.78-.1,1.16-.11,2.32-.22,3.48-.14,1.41-.34,2.81-.55,4.21-.02.16-.22.3-.33.45-.11-.16-.25-.31-.31-.49-.04-.15.1-.38.03-.48-.28-.38-.61-.73-.92-1.09-.22.32-.62.63-.65.97-.15,1.99-.25,3.99-.28,5.99-.03,1.91.04,3.83.09,5.75.03,1.01.37,1.71,1.61,1.35,1.07-.31,1.2.26,1.21,1.2.03,3.41.15,6.82.29,10.23.01.29.61.84.67.81,1.06-.63.93.16,1.07.78.09.41.44,1.09.63,1.08,1.09-.07,1.21.45,1.38,1.38.19,1.03-.12,2.58,1.68,2.76.14.01.3.63.32.97.11,1.8.1,1.81,1.93,1.86.61.02,1.18,0,1.09.92-.07.72.46.82,1.08.87,2.36.2,4.71.45,7.07.7.17.02.32.16.48.25-.15.04-.3.11-.45.12-1.03.04-2.07.05-3.1.11-.26.01-.52.16-.78.25.25.15.49.41.75.44,1.65.17,3.31.3,4.96.42.78.06,1.25.15.91,1.19-.42,1.28-.05,1.64,1.3,1.65.96,0,1.92.02,2.87,0,1.27-.03,1.76-.82,1.05-1.88-.56-.83-.07-.82.48-.82,1,0,2,.05,2.99.1,1.39.07,1.42.1.95,1.42-.31.89-.09,1.26.86,1.22.71-.03,1.42,0,2.12-.02,1.42-.03,1.58-.13,1.44-1.5-.11-1.12.27-1.46,1.37-1.46,1.62,0,3.24-.15,4.85-.29.24-.02.46-.33.69-.5-.27-.09-.54-.2-.82-.28-.06-.02-.16.11-.22.09-.24-.07-.48-.17-.71-.25.18-.17.33-.44.54-.5.56-.14,1.14-.2,1.72-.27,1.39-.17,1.38-.17,1.56-1.43.13-.92.26-1.83.46-2.74.05-.25.35-.45.54-.67.15.25.39.49.44.76.05.27-.14.56-.15.85-.01.55-.23,1.31.65,1.35.85.04.99-.59.89-1.3-.02-.12-.03-.25-.04-.37-.17-1.38-.08-1.45,1.32-1.45.22,0,.62-.27.64-.46.14-.98.23-1.97.26-2.96.06-1.87-.07-3.76.11-5.62.55-5.79-.02-11.54-.59-17.29-.02-.21-.22-.39-.33-.59Zm-31.76-27.14c-.66.03-1.32.01-1.98.01,0,.02,0,.04,0,.06-.58,0-1.16.01-1.74-.01-.13,0-.26-.15-.39-.23.08-.12.16-.36.24-.36,1.32-.03,2.64-.03,3.96-.02.08,0,.24.21.22.24-.08.13-.2.31-.31.31Z"/>
  <path d="m22.46,123.22c-.02-.23-.24-.44-.36-.67-.17.25-.5.5-.5.75,0,.82.13,1.64.18,2.45.01.23-.09.47-.13.7-.12-.22-.32-.43-.34-.66-.17-1.99-.32-3.98-.44-5.97-.19-3.37-.34-6.73-.52-10.1-.02-.33-.19-.64-.29-.97-.16.33-.46.66-.46.98.02,2.28.12,4.57.16,6.85,0,.23-.17.46-.26.69-.07-.22-.19-.44-.2-.66-.14-2.49-.25-4.98-.39-7.47-.3-5.15-.61-10.29-.92-15.44-.02-.25-.14-.5-.21-.74-.06.27-.16.54-.17.81-.08,2.2-.11,4.41-.23,6.61-.03.45-.41.87-.62,1.31-.23-.42-.62-.82-.66-1.26-.31-4.05-.56-8.11-.85-12.17-.02-.29-.21-.57-.32-.86-.11.3-.26.59-.31.9-.04.24.06.49.09.74.1.95.22,1.9.26,2.85,0,.21-.28.43-.43.65-.11-.2-.3-.4-.32-.61-.17-1.91-.41-3.81-.43-5.72-.06-5.2-.02-10.41-.02-15.61.09,0,.18,0,.27,0-.26-7.15-.51-14.3-.77-21.44,0-.19-.08-.38-.12-.57-.09.18-.23.35-.25.53-.08.91-.16,1.82-.16,2.74,0,3.24.02,6.47.03,9.71,0,.19-.09.39-.13.58-.09-.2-.24-.4-.25-.6-.05-1.5-.06-2.99-.1-4.49-.16-6.11-.33-12.23-.48-18.34-.06-2.62-.05-5.23-.11-7.85-.02-1.08-.12-2.16-.22-3.24-.04-.47-.16-.85-.78-.5-.39.22-.83.34-1.25.5-.22-.55-.73-1.19-.6-1.65.59-2.06-.32-4.05-.15-6.07.06-.71-.21-1.44-1.03-1.39-.26.02-.64.87-.66,1.35-.13,3.74-.17,7.49-.28,11.24,0,.35-.27.7-.41,1.04-.17-.37-.47-.73-.48-1.11-.06-2.45-.05-4.9-.09-7.35,0-.29-.2-.58-.31-.87-.12.31-.33.63-.33.94-.04,2.41-.02,4.82-.07,7.23-.02.91-.24,1.82-.26,2.73-.09,4.5-.11,8.99-.21,13.49-.03,1.49-.25,2.97-.4,4.46-.01.12-.15.24-.23.35-.06-.1-.16-.18-.19-.29-.2-.86-.36-1.73-.61-2.58-.08-.28-.38-.49-.58-.74-.11.19-.3.38-.32.58-.25,2.81-.61,5.62-.67,8.44-.1,5.12,0,10.25,0,15.37,0,3.83-.01,7.66-.01,11.49,0,3.2-.05,6.4.04,9.6.11,3.7.33,7.4.55,11.1.02.3.34.58.53.87.19-.32.51-.62.55-.95.09-.91,0-1.84.11-2.74.06-.45.42-.86.64-1.29.17.43.45.86.48,1.31.22,3.19.38,6.39.56,9.58.09,1.7.16,3.4.28,5.1.03.38.21.76.33,1.13.05-.37.15-.73.15-1.1.03-1.79.02-3.58.06-5.36,0-.23.18-.46.27-.69.08.21.22.42.24.64.23,3.4.44,6.8.68,10.2.02.25.28.49.43.74.15-.27.42-.54.43-.81.04-1.03,0-2.06,0-3.09,0-.13.11-.26.16-.38.05.1.13.2.14.31.18,1.68.36,3.37.51,5.05.15,1.8.24,3.62.43,5.42.03.28.41.52.63.77.24-.25.61-.46.67-.75.09-.43-.12-.92-.04-1.36.06-.34.36-.63.55-.94.16.29.42.58.45.88.28,2.78.51,5.57.78,8.35.02.18.19.34.29.51.11-.16.3-.31.31-.47.03-.45-.08-.92-.02-1.36.04-.32.26-.61.4-.92.15.3.4.58.43.89.11,1.14.14,2.29.23,3.43.02.21.21.52.37.57.74.19,1.49.39,2.25.4,1.86.03,3.72-.07,5.58-.05.72,0,.98-.3,1-.95.04-1.46.16-2.92.1-4.37-.16-3.45-.4-6.89-.63-10.34Z"/>
  <path d="m195.47,93.27c-.02-.23-.28-.44-.42-.66-.17.25-.4.47-.51.74-.06.16.11.4.1.6-.02.21-.13.41-.21.61-.11-.2-.31-.39-.33-.6-.11-1.11-.17-2.23-.25-3.35-.19-2.44-.38-4.88-.59-7.31-.01-.16-.2-.31-.31-.46-.08.17-.22.33-.23.5-.04,1.19-.06,2.37-.09,3.56,0,.11-.07.23-.11.34-.09-.11-.25-.2-.26-.32-.29-2.49-.55-4.99-.86-7.48-.03-.23-.27-.43-.41-.65-.15.24-.43.47-.44.72-.04.78.03,1.56.04,2.34,0,.13-.1.25-.15.38-.05-.1-.14-.2-.16-.3-.17-1.56-.39-3.12-.49-4.69-.25-3.98-.44-7.95-.67-11.93-.01-.23-.17-.44-.26-.67-.11.23-.3.46-.31.69-.09,1.82-.04,3.65-.64,5.41-.06.16-.22.29-.33.43-.09-.12-.26-.23-.27-.36-.11-.94-.22-1.87-.29-2.82-.06-.87,0-1.76-.14-2.62-.05-.31-.59-.84-.75-.79-1.2.39-1.28-.31-1.28-1.17,0-.75,0-1.5-.03-2.25-.18-5.57-.37-11.14-.57-16.7,0-.19-.18-.38-.28-.56-.06.18-.18.36-.18.55-.06,2.33-.1,4.65-.16,6.98,0,.19-.05.39-.08.58-.09-.19-.24-.37-.25-.56-.06-1.83-.05-3.66-.15-5.48-.19-3.53-.44-7.06-.65-10.59-.06-1.06-.27-1.22-1.25-.83-.57.23-1.22.49-1.28-.47-.23-3.4-.42-6.8-.64-10.19-.02-.29-.17-.56-.26-.84-.1.28-.29.55-.3.83-.04,1.66-.03,3.32-.08,4.97,0,.25-.19.5-.29.75-.07-.22-.18-.44-.19-.66-.17-2.52-.32-5.04-.5-7.55-.15-2.2-.32-4.4-.5-6.59-.02-.21-.16-.41-.24-.62-.06.23-.17.45-.16.68.05,1.41.17,2.83.17,4.24,0,.42-.31.84-.47,1.27-.17-.41-.46-.81-.49-1.23-.13-1.57-.2-3.15-.26-4.73-.03-.72-.38-1.12-1.09-1.05-.91.09-1.8.3-2.71.39-.9.09-1.16.58-1.17,1.43-.05,5.16-.12,10.31-.2,15.46-.04,2.66-.21,5.31-.16,7.97.1,5.29.34,10.57.48,15.86.04,1.45-.1,2.9-.13,4.36-.01.59.19,1.03.91.7.71-.33.9.12.99.67.05.32.02.66.02,1-.02,1.45.29,1.77,1.66,1.45.93-.21,1.22.1,1.18.99-.07,1.4-.15,2.81-.09,4.21.14,3.31.36,6.62.58,9.93.01.19.41.55.5.52,1.4-.54,1.15.48,1.19,1.23.2,3.11.4,6.22.6,9.33,0,.11.07.22.11.33.04-.09.12-.18.13-.28.08-2.47.15-4.94.24-7.41,0-.2.13-.4.2-.61.07.18.2.35.21.53.2,3.23.41,6.46.55,9.69.07,1.78.09,1.87,1.84,1.56.6-.11.85.04.9.64.26,3.14.54,6.28.82,9.42.02.18.13.36.19.54.07-.2.2-.4.21-.61.02-.91-.03-1.83.01-2.74.01-.26.23-.5.35-.75.13.22.35.43.38.66.2,1.47.34,2.95.52,4.42.06.45.18.89.28,1.34.08-.43.13-.86.25-1.27.07-.25.25-.46.39-.69.18.19.48.37.51.58.14,1.18.17,2.38.34,3.56.05.34.4.85.67.89,1.08.18,2.19.27,3.29.26,1.35,0,2.7-.27,4.03-.18.86.06,1.04-.19,1.04-.91,0-2.25,0-4.49,0-6.74.13,0,.26,0,.39-.01-.24-2.6-.47-5.2-.74-7.8Z"/>
  <path d="m408.52,108.93c-.04-2.79-.04-5.57-.09-8.36,0-.26-.28-.52-.43-.78-.1.28-.28.55-.28.83-.02,3.16,0,6.32-.03,9.47,0,.73-.15,1.45-.22,2.18-.12-.81-.32-1.61-.35-2.43-.12-3.87-.14-7.74-.29-11.61-.22-5.61-.53-11.22-.81-16.83,0-.18-.1-.35-.15-.52-.03.16-.09.31-.1.47-.12,1.23-.22,2.46-.35,3.69-.11.99-.24,1.98-.41,2.96-.03.2-.26.36-.4.55-.1-.21-.27-.41-.29-.63-.16-2.87-.4-5.73-.42-8.6-.02-4.41.22-8.82.16-13.23-.07-5.45-.35-10.9-.52-16.35-.13-4.03-.24-8.07-.36-12.1,0-.18-.12-.36-.18-.54-.03.19-.1.38-.09.57.04,1.78.15,3.57.13,5.35-.02,1.66-.21,3.32-.27,4.97-.1,2.78-.16,5.55-.24,8.33,0,.16-.06.31-.09.47-.02-.16-.05-.32-.06-.48-.06-3.03-.09-6.06-.19-9.09-.11-3.37-.27-6.73-.46-10.1-.02-.29-.45-.8-.7-.81-1.86-.05-3.72-.03-5.58.06-.23.01-.61.56-.62.87-.18,4.82-.3,9.64-.45,14.46,0,.26-.13.52-.2.78-.13-.25-.38-.5-.38-.76-.03-2-.02-4-.02-6-.03,0-.07,0-.1,0,0-2.08,0-4.16,0-6.24,0-.14-.12-.28-.19-.42-.06.13-.18.25-.19.38-.15,2.45-.36,4.89-.42,7.34-.15,6.36-.3,12.73-.33,19.09-.02,4.91.18,9.82.23,14.73.09,7.95.13,15.9.22,23.85,0,.36.24.72.37,1.08.12-.37.34-.73.34-1.1,0-2.29-.05-4.58-.05-6.87,0-.36.24-.72.37-1.07.14.35.38.7.39,1.06.14,3.95.21,7.9.36,11.85.12,3.07.31,6.14.5,9.21.01.21.26.41.4.61.08-.17.25-.34.24-.5-.06-1.27-.17-2.54-.24-3.81-.07-1.21-.14-2.41-.12-3.62,0-.33.34-.66.52-.99.12.33.32.66.34,1.01.2,3.48.38,6.96.55,10.43.03.54.09,1.05.8,1,.7-.05,1.06-.43.97-1.16-.04-.33-.14-.66-.12-.99.01-.19.22-.37.34-.55.09.17.23.34.25.52.12,1.13.18,2.27.36,3.39.05.31.45.79.7.81,2.03.1,4.07.11,6.1.13.69,0,1.09-.26,1.03-1.06-.03-.39.13-.79.21-1.19.08.4.17.8.25,1.2,0,.04-.02.09,0,.12.1.24.21.47.32.71.19-.22.43-.41.56-.66.09-.16.03-.41.02-.62-.08-4.82-.16-9.65-.23-14.47Z"/>
  <path d="m681.23,80.93c-1.06-.22-2.16-.27-3.23-.42-.14-.02-.35-.27-.34-.38.04-.37.18-.72.28-1.08.1.1.2.19.29.29.19.19.37.39.56.58.14-.37.38-.73.4-1.1.01-.24-.25-.68-.46-.72-.8-.17-1.63-.32-2.44-.29-2.2.08-4.39.31-6.59.37-1.14.03-1.64.31-1.26,1.55.28.9-.2,1.25-1.13,1.29-2.7.11-5.4.3-8.1.47-.21.01-.42.15-.63.23.21.08.42.21.64.22,2.61.05,5.23.07,7.84.11.19,0,.38.09.57.13-.17.07-.33.18-.51.2-1.78.12-3.56.22-5.35.35-1.11.08-2.23.17-3.34.31-.2.02-.37.26-.56.4.15.14.28.38.44.4.59.06,1.18.03,1.77.05.23,0,.46.03.68.1.05.02.09.31.07.32-.21.09-.43.2-.65.21-.37.01-.76-.12-1.11-.06-3.6.57-7.21.56-10.83.19-.29-.03-.55-.32-.83-.49.32-.11.63-.31.95-.32,1.08-.02,2.16.04,3.25.04.16,0,.32-.15.48-.23-.15-.06-.29-.15-.44-.16-1.03-.09-2.09-.3-3.1-.2-1.21.13-1.46-.43-1.48-1.41-.02-1.71-.03-3.42-.1-5.12-.03-.67-.19-1.34-.3-2.01-.14.65-.27,1.29-.4,1.94,0,.04,0,.09,0,.12-.1.29-.21.58-.31.86-.14-.3-.39-.6-.42-.91-.14-1.91-.23-3.82-.31-5.73-.02-.58-.05-1.19.1-1.73.08-.29.61-.73.8-.67.8.26.85-.2.9-.74.06-.62.12-1.24.16-1.87.2-3.38.4-6.76.61-10.14.01-.18.17-.34.26-.51.09.19.24.38.25.58.06,1.03.07,2.06.12,3.09,0,.14.13.27.2.4.1-.1.28-.19.3-.3.13-1.02.31-2.03.33-3.05.02-1.22.15-1.4,1.44-1.43,2.29-.06,4.57-.13,6.86-.22.21,0,.42-.16.63-.24-.2-.1-.39-.3-.59-.3-2.41-.06-4.82-.08-7.23-.14-.21,0-.42-.13-.63-.21.2-.1.39-.28.59-.28,1.58-.05,3.17-.03,4.75-.09,2.45-.09,4.9-.22,7.35-.35.64-.03,1.25-.11.74-1.05-.06-.12.4-.75.68-.8,1.7-.31,1.7-.28,1.66-1.94,0-.21-.03-.43.03-.62.16-.53.29-1.14,1.04-.44.25.23.88.44,1.06.3.31-.24.54-.75.56-1.16.04-.82,0-1.67-.17-2.47-.06-.28-.61-.67-.9-.65-1.99.19-2.02.17-1.91-1.96.01-.26-.19-.74-.37-.78-.79-.18-1.61-.34-2.42-.33-2.46.01-4.91.09-7.37.18-1.17.04-1.28.22-.91,1.36.18.57.31,1.17-.47,1.26-1.64.19-3.3.35-4.96.38-1.48.03-1.69-.36-1.56-1.82.04-.43-.24-.92-.49-1.31-.09-.14-.69-.18-.77-.07-.26.39-.41.85-.56,1.3-.04.14.04.33.1.48.32.85-.1,1.18-.87,1.2-.45.02-.94-.16-1.36-.05-.35.09-.87.43-.9.7-.19,1.77-.25,3.56-.39,5.33-.02.3-.26.59-.4.88-.15-.31-.42-.61-.43-.93-.05-.95,0-1.9,0-2.85,0-.14-.07-.28-.11-.41-.07.13-.18.26-.2.41-.24,1.67-.46,3.35-.68,5.03-.11.82-.3,1.64-.26,2.46.07,1.32.28,2.64.47,3.95.08.53.29,1.03.44,1.55.18-.49.36-.98.55-1.46.05-.14.13-.27.2-.4.08.13.21.25.22.38.11,1.03.24,2.06.29,3.1.13,2.89-.65,5.8.21,8.7.1.35-.4,1.25-.71,1.3-1.07.16-1.24.77-1.27,1.65-.09,2.49-.34,4.99-.31,7.48.05,4.46.26,8.93.43,13.39,0,.2.33.39.51.59.14-.21.37-.42.38-.64.02-.36-.16-.74-.13-1.11.02-.29.24-.56.37-.84.13.26.31.5.39.78.06.19.01.42-.03.62-.23,1.03.18,1.47,1.23,1.46,2.46-.02,4.91,0,7.37,0v.28c2.29-.18,4.57-.34,6.84-.56.3-.03.57-.4.86-.62-.29-.32-.57-.66-.89-.94-.09-.08-.36.04-.47-.04-.15-.1-.27-.29-.33-.46-.02-.05.21-.25.35-.27.81-.14,1.63-.32,2.45-.34,5.7-.17,11.39-.29,17.09-.45.28,0,.55-.23.82-.36-.25-.16-.49-.44-.74-.45-1.12-.05-2.24,0-3.37-.01-2.83-.02-5.66-.04-8.48-.06-.16,0-.32-.04-.48-.06.16-.02.31-.06.47-.07,1.66-.08,3.33-.15,4.99-.25,3.01-.18,6.03-.38,9.03-.61.19-.01.35-.35.53-.54-.19-.12-.37-.35-.56-.36-.82-.04-1.65,0-2.48-.01-.14,0-.28-.08-.42-.12.1-.05.2-.13.31-.14.86-.1,1.75-.09,2.58-.3.4-.1.82-.56,1.02-.96.16-.33,0-.81-.01-1.23-.03-.89.21-1.26,1.17-.79.91.44,1.43.1,1.48-.92.04-.83.09-1.68-.05-2.49-.06-.34-.55-.79-.91-.87Z"/>
  <path d="m421.86,8.5c-3.32-.11-6.65-.28-9.97-.45-.26-.01-.51-.14-.77-.22.24-.09.48-.26.73-.26,2.58-.09,5.15-.15,7.73-.23.27,0,.53-.12.8-.18-.24-.09-.48-.25-.73-.26-2.58-.09-5.16-.13-7.74-.24-2.37-.1-4.73-.26-7.09-.43-.27-.02-.51-.27-.77-.41.3-.08.59-.21.89-.22.66-.02,1.32.07,1.97.03.54-.03,1.08-.19,1.62-.29-.55-.14-1.1-.33-1.66-.4-5.07-.63-10.13-.42-15.18.15-.13.01-.25.09-.38.14.12.02.24.05.36.06,1.57.13,3.13.24,4.7.38.14.01.28.13.41.19-.13.06-.26.16-.39.18-1.57.16-3.14.39-4.71.45-4.72.2-9.45.33-14.18.5-.17,0-.34.15-.51.22.18.12.35.31.54.34.86.12,1.73.18,2.6.27.14.02.27.11.4.17-.1.06-.19.17-.29.18-1.41.22-2.81.46-4.22.61-1.23.14-2.47.16-3.7.26-.18.01-.34.18-.51.27.16.15.31.36.5.43.68.25,1.38.5,2.09.64.37.08.79-.02,1.17-.11.25-.05.47-.22.7-.33.07.27.28.6.19.8-.1.22-.45.44-.71.47-1.65.16-3.3.3-4.96.38-2.37.12-4.74.16-7.1.28-.32.02-.62.29-.93.44.29.17.56.36.86.52.29.16.6.28.91.43-.34.05-.67.13-1.01.15-.96.05-1.48.6-1.35,1.38.16.93.2,1.89.43,2.8.09.38.49.89.83.95.93.17,1.9.2,2.86.19,3.78-.07,7.55-.2,11.33-.26.78-.01,1.56.18,2.34.2,3.99.06,7.99.09,11.98.16.28,0,.56.23.84.35-.28.14-.56.39-.84.4-1.41.05-2.83.05-4.25.04-2.62-.03-5.25-.09-7.87-.1-.28,0-.56.21-.84.32.21.1.41.28.62.28,3.99.05,7.99.05,11.98.13.89.02,1.78.24,2.66.42.15.03.36.27.38.44.13,1.05.18,2.1.33,3.15.08.53.32,1.03.49,1.55.12-.49.24-.98.36-1.47.1-.42.19-.84.28-1.25.07.39.22.79.21,1.18-.07,1.67.29,2.08,1.96,2.08.33,0,.67.02,1-.02,2.43-.34,2.45-.34,2.48-2.84,0-.75.23-1.16,1.07-1.18,1.03-.02,2.07-.14,3.1-.25.25-.03.49-.2.73-.3-.28-.12-.56-.32-.84-.33-.99-.03-1.98.01-2.97,0-.17,0-.35-.13-.52-.2.17-.12.34-.34.52-.36,3.56-.28,7.12-.53,10.69-.79,0,.1,0,.19.01.29,2.2,0,4.41.01,6.61-.02.29,0,.57-.23.85-.35-.3-.15-.6-.41-.91-.43-.79-.06-1.58,0-2.37-.02-4.16-.05-8.31-.11-12.47-.17-.27,0-.54-.05-.81-.08.26-.07.51-.19.77-.2,5.56-.15,11.12-.32,16.69-.4,1.02-.01,1.19-.42,1.16-1.27-.07-2.61-.11-5.22-.15-7.84,0-.69-.21-1.06-1.01-1.08Zm-45.46,8.41c-.97-.02-1.93-.09-2.89-.19-.16-.02-.29-.25-.44-.38.19-.13.37-.33.57-.37.44-.08.9-.07,1.35-.09,0,.02,0,.03,0,.05.45,0,.91-.05,1.35.02.19.03.47.29.47.45,0,.18-.27.51-.42.51Z"/>
  <path d="m569.58,73.89c-.87.12-1.22-.12-1.22-1.03,0-3.83-.04-7.65-.06-11.48,0-.5,0-1-.02-1.5-.2-4.15-.41-8.31-.62-12.46-.01-.2-.07-.39-.11-.59-.08.21-.21.42-.22.62-.04,2.29-.05,4.58-.09,6.87,0,.19-.19.38-.29.57-.06-.19-.17-.37-.19-.56-.17-1.94-.36-3.88-.47-5.83-.04-.73-.27-1.05-1.03-1.05-1.53,0-3.07-.05-4.6-.13-.4-.02-.8-.21-1.2-.32.37-.12.73-.33,1.1-.35,1.58-.11,3.16-.23,4.73-.22.78,0,1.02-.24,1.02-.98,0-4.11.03-8.23.06-12.34.02-2.57.07-5.15.13-7.72,0-.21.17-.42.26-.63.12.2.32.39.34.6.04.53-.06,1.07,0,1.6.03.26.28.5.43.76.14-.22.4-.43.41-.66.05-1.08.04-2.16.05-3.25,0-.57-.22-.79-.84-.76-1.48.08-2.98.2-4.45.08-1.07-.09-1.42.19-1.4,1.24.04,1.71.01,3.41-.05,5.12-.08,2.11-.25,4.21-.33,6.31-.03.74.13,1.5.1,2.24,0,.24-.34.47-.52.7-.16-.25-.47-.5-.47-.75,0-2.28.07-4.55.08-6.83,0-.32-.18-.65-.28-.98-.11.28-.32.56-.33.84-.02,1.74.07,3.49,0,5.23-.09,2.32-.35,4.63-.44,6.95-.09,2.28-.04,4.57-.08,6.85,0,.22-.24.44-.37.66-.14-.23-.36-.45-.39-.69-.05-.45.05-.92,0-1.37-.02-.18-.25-.35-.39-.52-.1.16-.26.32-.28.5-.12.98-.23,1.95-.29,2.93-.13,2.07-.21,4.14-.36,6.2-.02.34-.31.66-.48.99-.22-.31-.6-.61-.64-.94-.07-.65.14-1.34.04-1.98-.06-.39-.48-.73-.73-1.09-.18.32-.5.62-.53.95-.08.95-.04,1.91-.05,2.87-.01,1.4.1,1.5,1.39.93.73-.33,1.01-.09,1.1.6.06.45.14.91.14,1.37.01,3.12,0,6.24,0,9.37-.03,0-.07,0-.1,0,.23,5.28.46,10.55.7,15.83,0,.16.07.31.11.47.03-.15.09-.31.1-.46.04-1.08.04-2.16.14-3.24.02-.25.38-.47.58-.71.11.25.29.5.3.76.12,1.86.18,3.72.33,5.58.03.32.36.62.55.92.08-.33.18-.65.23-.98.03-.16-.08-.34-.03-.49.08-.27.22-.52.33-.78.17.25.38.49.51.76.06.13,0,.33-.03.49-.21.9.19,1.23,1.05,1.21,1.83-.03,3.66-.06,5.5-.06.77,0,1.09-.28,1.09-1.12.02-1.79.16-3.57.28-5.36.01-.2.18-.4.28-.59.06.19.16.37.17.57.09,1.2.11,2.41.27,3.6.05.36.46.68.71,1.01.24-.34.69-.66.7-1.01.13-3.99.22-7.99.25-11.98.01-1.47-.18-1.59-1.63-1.39Zm-10.83,7.08c0,.16-.06.31-.09.47-.06-.13-.16-.27-.17-.4-.04-2.07-.08-4.13-.1-6.2,0-.09.09-.19.14-.28.05.1.14.21.14.31.01,1.08,0,2.16,0,3.24.02,0,.05,0,.07,0,0,.95,0,1.91,0,2.86Z"/>
  <path d="m618.99,56.27c-.13-3.62-.18-7.24-.29-10.86,0-.26-.13-.52-.2-.79-.07.25-.18.5-.2.76-.25,3.63.55,7.25-.07,10.92-.4,2.38.01,4.89.03,7.34,0,.3-.14.6-.22.91-.08-.28-.23-.56-.24-.84-.14-4.41-.27-8.82-.4-13.23.04,0,.09,0,.13,0-.18-3.44-.34-6.89-.56-10.33-.03-.42-.34-.82-.51-1.23-.1.41-.18.82-.3,1.23-.06.2-.19.39-.28.58-.08-.17-.22-.34-.24-.52-.15-1.19-.29-2.39-.39-3.59-.16-1.87-.15-1.84-2.01-1.94-.36-.02-.71-.37-1.06-.57.37-.29.7-.72,1.12-.82.31-.08.72.31,1.11.4.16.04.51-.14.53-.26.12-.68.08-1.2-.9-1.19-.78,0-1.62-.19-2.34-.5-.82-.34-1.11.14-1.32.67-.14.35-.06.82,0,1.22.13.77-.19,1.19-.94,1.04-1.03-.2-1.11.41-1.14,1.14-.05,1.29-.2,2.59-.11,3.87.08,1.24-.32,1.56-1.49,1.31-.62-.13-1.42-.23-1.37.86.17,3.41.33,6.81.51,10.22.01.2.21.4.33.6.1-.2.28-.39.3-.6.18-1.4.29-2.81.51-4.2.08-.48.42-.91.64-1.36.1.46.3.92.3,1.38.02,8.4.01,16.8,0,25.2,0,.42-.23.84-.35,1.26-.23-.46-.48-.91-.69-1.37-.04-.09.06-.23.08-.36.11-.73.34-1.46.32-2.19-.11-3.74-.3-7.48-.41-11.22-.02-.61.1-1.28-.69-1.3-.2,0-.59.79-.59,1.23-.11,5.38-.16,10.76-.23,16.15,0,.58-.12,1.2.03,1.74.1.36.58.88.87.87.34-.02.73-.49.95-.85.15-.25.01-.65.06-.98.03-.17.18-.31.28-.47.07.14.18.28.2.42.12,1.2.26,2.39.3,3.59.1,2.58.13,5.15.21,7.73.02.56.16,1,.92.71.87-.33,1.04.19.87.88-.17.69.11.94.74.95,1.91.02,3.83.05,5.74.03.27,0,.74-.23.78-.42.17-.93.24-1.88.3-2.83.1-1.58.15-3.15.23-4.73,0-.14.11-.28.18-.42.04.15.12.29.12.44.05,1.62.06,3.24.14,4.86.02.34.28.66.43.99.1-.32.28-.64.3-.97.15-2.91.33-5.81.4-8.72.09-3.49.17-6.98.09-10.47-.08-3.78-.38-7.56-.52-11.34Z"/>
  <path d="m632.86,3.89c-.04-.54.58-1.23-.31-1.6-.08.51-.13,1.03-.24,1.54-.07.29-.24.56-.37.84-.16-.29-.34-.58-.46-.88-.05-.14.02-.33.07-.49.28-.98-.25-1.29-1.09-1.34-1.2-.07-2.41-.23-3.61-.19-3.49.12-6.97.32-10.46.48-1.33.06-1.4.09-1.08,1.35.2.78,0,1.25-.8,1.34-1.02.13-2.06.16-3.08.3-.4.05-.78.27-1.17.42.38.12.75.25,1.14.35.16.04.34-.02.49.04.13.05.22.21.32.32-.13.09-.24.24-.38.26-.89.12-1.78.22-2.67.32-1.6.19-3.2.37-4.81.56-.14.02-.27.12-.4.18.13.07.27.18.4.19,1,.05,1.99.06,2.99.12.21.01.42.19.63.29-.21.13-.42.36-.64.38-2.68.28-5.37.53-8.05.79-.16.02-.31.08-.46.12.18.05.35.13.53.14,1.2.07,2.41.12,3.61.2.17.01.34.17.51.27-.14.12-.27.29-.44.35-.23.08-.49.08-.74.1-1.74.1-3.49.23-5.23.28-1.01.03-1.35.43-1.11,1.41.1.39.09.83.05,1.23-.02.15-.25.38-.4.39-.14.01-.38-.19-.43-.34-.1-.26-.09-.56-.12-.85-.04-.45-.07-.9-.11-1.35-.11.47-.32.95-.32,1.42,0,1.01-.4,1.45-1.42,1.41-.78-.03-1.57.05-2.36.11-.43.03-.85.12-1.28.18.41.15.83.28,1.23.46.21.09.37.27.56.41-.12.14-.22.39-.36.41-.99.18-1.99.29-2.97.5-.26.06-.46.4-.69.61.25.16.49.37.77.46.26.09.72-.04.83.11.56.78,1.24.58,2.02.49,1.6-.2,3.22-.34,4.84-.38,2.25-.06,4.49,0,6.74-.01.24,0,.47-.2.71-.31-.25-.09-.5-.26-.75-.27-2.41-.12-4.82-.21-7.23-.34-.21-.01-.42-.17-.62-.27.2-.12.4-.34.6-.34.78.02,1.56.2,2.34.18,3.16-.09,6.31-.26,9.47-.34.45-.01,1.22.24,1.29.53.25.88.3,1.83.3,2.76.02,2.58-.03,5.16,0,7.74,0,.38.22.76.34,1.14.12-.36.34-.72.34-1.09.02-2.36-.04-4.73,0-7.09.01-.58.32-1.16.5-1.73.17.59.46,1.17.48,1.76.12,3.16.15,6.32.27,9.47.01.36.43.7.66,1.05.25-.25.7-.49.72-.76.21-2.06.38-4.13.46-6.2.06-1.48-.09-2.97-.08-4.45,0-.94.77-.83,1.38-.81.8.03.49.55.42.99-.05.33-.11.68-.03.99.07.28.33.5.51.75.13-.23.33-.46.37-.71.2-1.26.31-2.54.55-3.79.05-.27.49-.63.77-.65,2.7-.16,5.4-.25,8.1-.37.2,0,.4-.08.6-.12-.2-.03-.4-.08-.6-.09-2.71-.08-5.41-.13-8.12-.23-.28-.01-.55-.25-.83-.39.27-.11.55-.3.82-.3,1.87-.03,3.75-.01,5.62-.01v-.32c2.62,0,5.24,0,7.86,0,1.87,0,1.9,0,1.65-1.91-.09-.7.15-1.23.8-.98,1.19.45,1.05-.29,1.02-.94-.09-2.08-.2-4.15-.35-6.23Zm-26.34,10.98c-.82.08-1.65.06-2.47.06-.14,0-.29-.11-.43-.17.14-.11.28-.3.43-.31.62-.03,1.24-.01,1.85-.01,0,0,0-.02,0-.03.21,0,.41,0,.62,0,.39.01.78.03,1.17.05-.39.14-.77.37-1.17.41Z"/>
  <path d="m643.54,25.31c1.24-.1,1.53.23,1.31,1.43-.22,1.23.28,1.75,1.5,1.65,3.01-.26,6.01-.6,9.02-.95.26-.03.49-.32.74-.48-.25-.16-.51-.32-.76-.49-.38-.25-.75-.5-1.13-.75.42-.16.83-.44,1.26-.46,4.64-.29,9.29-.53,13.93-.8.22-.01.43-.16.65-.24-.23-.09-.46-.25-.69-.26-2.45-.09-4.9-.14-7.35-.22-.24,0-.48-.1-.71-.15.23-.04.47-.12.71-.13,2.45-.12,4.9-.2,7.35-.36.39-.03,1.08-.41,1.09-.65.09-1.97.09-3.94.03-5.91-.01-.32-.46-.71-.8-.89-.36-.19-.84-.17-1.27-.25.43-.09.86-.15,1.27-.28.21-.07.38-.26.56-.4-.16-.16-.3-.43-.48-.46-.9-.13-1.8-.27-2.7-.28-3.08-.03-6.16-.01-9.23-.01,0,.08,0,.15,0,.23-3.2,0-6.4-.02-9.6.04-.27,0-.8.54-.77.77.15,1.03-.32,1.23-1.2,1.24-.29,0-.8.32-.83.55-.15,1.08-.18,2.19-.24,3.28-.04.61-.3.88-.95.85-1.97-.11-1.97-.09-2.14,1.91-.03.29-.05.58-.06.87-.05,1.38.16,1.72,1.52,1.61Z"/>
  <path d="m579.2,10.86c-.66.15-1.16-.14-.97-.85.32-1.15-.34-1.18-1.13-1.15-.41.02-.83.11-1.24.09-2.2-.11-4.4-.37-6.59-.33-3.77.08-7.53.35-11.29.53,0,.01,0,.02,0,.04-.96.04-1.92.07-2.87.15-.24.02-.46.22-.69.34.27.06.53.17.8.18,1.75.07,3.51.12,5.26.2.14,0,.27.23.41.36-.13.07-.26.21-.39.21-.78.01-1.57-.06-2.35,0-3.07.19-6.14.41-9.2.63-.14.01-.27.14-.41.21.11.14.2.34.35.42.22.11.57.05.7.21.26.32.56.74.56,1.12,0,.22-.55.64-.84.62-1.22-.07-1.28.61-1.14,1.52.06.37.13.75.09,1.12-.09.91.24,1.3,1.18,1.26,2.12-.11,4.24-.27,6.36-.22,4.86.12,9.72.36,14.58.51.86.03.89.51.91,1.15.04,1.7.05,1.7,1.74,1.67.17,0,.33,0,.5,0,1.63-.02,1.68-.02,1.63-1.65-.03-.94.29-1.24,1.22-1.21,1.09.03,2.19-.07,3.28-.19.2-.02.51-.42.51-.65.04-1.78,0-3.56.02-5.34,0-.72-.15-1.13-1.01-.93Zm-18.52,5.99c-1.37-.05-2.73-.16-4.1-.25,0,.01,0,.03,0,.04-1.04,0-2.08,0-3.12,0-.19,0-.38-.1-.56-.15.16-.09.31-.26.47-.27,2.53-.01,5.05,0,7.58.01.16,0,.32.19.48.3-.24.11-.49.33-.73.32Z"/>
  <path d="m303.85,35.35c1.49-.04,2.98.07,4.46.13,1.63.07,1.76,0,1.71-1.61-.1-3.12-.26-6.23-.36-8.68,0-3.88-.02-7.08.01-10.28,0-.95-.29-1.38-1.3-1.32-1.49.09-2.93-.6-4.48-.11-.57.18-.87.23-.89.85-.07,1.87-.2,3.74-.22,5.61-.03,2.95.05,5.9.03,8.85-.02,1.75-.14,3.49-.24,5.23-.05.92.24,1.37,1.28,1.34Z"/>
  <path d="m400.02,35c1.98-.16,1.71.11,1.76-1.84.02-.71,0-1.41,0-2.12.01,0,.03,0,.04,0-.03-.5-.05-1-.09-1.49q-.18-2.45-2.56-2.74c-2.24-.27-2.49-.09-2.88,2.12,0,.04,0,.09-.02.12-.09.12-.18.24-.27.36-.08-.12-.22-.24-.24-.37-.04-.41,0-.83-.06-1.24-.02-.17-.22-.31-.33-.46-.12.15-.33.29-.33.44-.09,2.15-.16,4.31-.17,6.46,0,.22.44.62.69.63,1.48.1,2.98.25,4.46.13Z"/>
  <path d="m648.14,39.18c.73-.13.99-.51,1.02-1.17.11-2.66.21-5.32.33-7.98.03-.73-.23-1.1-1-1.07-.75.03-1.5.06-2.25.03-.78-.03-1.03.36-1.01,1.07.02.79,0,1.58,0,2.37.04,0,.08,0,.12,0-.09,1.37-.22,2.73-.28,4.1-.13,2.97.12,3.15,3.06,2.63Z"/>
  <path d="m5.92,13.69c.73-.09,1.63-.17,1.25,1.13-.05.17.31.63.52.65.22.03.65-.28.69-.5.25-1.35.9-2.65.47-4.11-.27-.93-.43-1.92-.5-2.9-.1-1.39-.06-2.8-.12-4.2-.01-.33-.2-.65-.3-.98-.14.3-.36.59-.4.91-.07.53-.02,1.08-.02,1.62.02,0,.05,0,.07,0-.02.54-.04,1.08-.08,1.62-.08,1.43-.38,1.68-1.79,1.76-.28.02-.74.41-.77.66-.11,1.11-.11,2.24-.1,3.36,0,.67.24,1.08,1.07.98Z"/>
  <path d="m208.12,59.8c0,.25.16.49.25.74.1-.24.27-.49.27-.74.08-3.1.15-6.2.18-9.31.03-2.99,0-5.98,0-8.95-.07-.98-.12-1.93-.22-2.87-.02-.16-.25-.29-.39-.44-.07.17-.19.34-.19.52,0,.5.05,1,.05,1.5.01,6.51.02,13.03.05,19.54Z"/>
  <path d="m212.72,102.88c-.05-.83-.14-1.58-1.28-1.58-1.06,0-1.61.38-1.67,1.51-.03.71-.04,1.63-1.28,1.25-.11-.03-.34.33-.52.51.21.09.4.2.62.26.28.08.59.08.84.21.57.29,1.11.64,1.66.96q1.88-.27,1.69-2.01c-.04-.37-.04-.75-.06-1.12Z"/>
  <path d="m103.44,53.47c0-.08-.14-.14-.22-.21-.03.07-.07.15-.08.22-.09,1.15-.22,2.3-.25,3.45-.1,4.64-.17,9.27-.23,13.91,0,.19.2.39.3.58.13-.18.36-.35.36-.53.02-3.11.02-6.22.02-9.33.05,0,.1,0,.15,0,0-2.29,0-4.57,0-6.86,0-.42-.02-.83-.06-1.24Z"/>
  <path d="m300.77,79.18c-.35.08-.82.48-.88.8-.13.76-.04,1.56-.04,2.35h.03c0,.7-.11,1.43.04,2.1.1.48.46,1.16.84,1.28.79.24,1.1-.51,1.1-1.14,0-1.6-.08-3.21-.23-4.81-.02-.24-.62-.64-.87-.59Z"/>
  <path d="m208.1,34.41c0,.15.09.3.13.46.11-.14.26-.27.33-.43.07-.14.08-.32.08-.49.04-4.22.09-8.44.11-12.66,0-.26-.23-.51-.36-.77-.1.28-.29.56-.29.83-.02,2.36-.01,4.72-.01,7.08,0,0,0,0,0,0,0,1.99,0,3.98,0,5.97Z"/>
  <path d="m638.78,77.14c-.06.18-.17.35-.17.53.05,4.52.1,9.05.17,13.57,0,.21.15.42.23.63.09-.24.27-.49.27-.73.02-1.95.01-3.91.01-5.86.02,0,.04,0,.06,0-.12-2.53-.23-5.07-.36-7.6,0-.18-.14-.35-.21-.53Z"/>
  <path d="m620.98,64.2c-.06,0-.12,0-.18,0-.09-1.08-.17-2.15-.26-3.23-.01-.16-.07-.31-.1-.47-.05.17-.14.34-.14.5.05,3.12.11,6.23.16,9.35.02,1.08.35,2.31-.05,3.21-.58,1.32.19,2.44.01,3.64-.02.12.16.26.25.39.1-.14.25-.27.29-.43.05-.19.02-.41.02-.62,0-4.11,0-8.22,0-12.33Z"/>
  <path d="m254.74,125.35c-.21,0-.43.23-.64.35.2.16.38.45.59.47.49.04.98-.11,1.47-.09,2.26.13,4.52.3,6.78.46,0-.09.01-.18.02-.27.66,0,1.33.04,1.99-.02.21-.02.39-.32.58-.49-.21-.13-.43-.36-.64-.37-3.38-.04-6.77-.06-10.15-.05Z"/>
  <path d="m128.76,12.62s0,.04,0,.06c1.43,0,2.85.01,4.28-.02.18,0,.35-.24.53-.38-.16-.15-.31-.4-.48-.42-.77-.08-1.55-.15-2.32-.13-2.38.05-4.76.13-7.14.23-.17,0-.34.24-.51.37.16.1.31.27.47.27,1.73.02,3.46.01,5.19.01Z"/>
  <path d="m706.72,86.8c-1.16-.23-2.32-.52-3.49-.6-.79-.06-1.61.16-2.41.32-.18.03-.48.37-.45.44.1.22.32.52.51.54,1.19.11,2.38.16,3.57.23,0-.04,0-.08,0-.11.7,0,1.41.03,2.11-.02.19-.01.36-.26.54-.4-.13-.13-.24-.35-.39-.38Z"/>
  <path d="m267.24,109.96c0-.27-.18-.55-.28-.82-.06.27-.19.54-.18.81.07,1.7.5,3.46.18,5.08-.46,2.3,0,4.51.03,6.76,0,.17.14.33.21.49.09-.16.27-.32.27-.48.02-1.33.01-2.66.01-3.99-.07,0-.15,0-.22,0,0-2.62,0-5.23-.01-7.85Z"/>
  <path d="m542.27,16.01c-1.07.06-2.14.09-3.21.22-.27.03-.5.4-.75.61.24.27.44.72.73.78.55.13,1.15.04,1.73.04v.04c.5,0,.99-.01,1.49,0,.64.02,1.03-.17,1.01-.9-.02-.69-.44-.82-.99-.79Z"/>
  <path d="m430.32,25.87c-.07.26-.21.53-.2.78.12,3.6.25,7.19.39,10.79,0,.13.1.25.15.38.02-.12.06-.24.06-.35,0-2.44,0-4.87,0-7.31.08,0,.15,0,.23,0-.12-1.19-.23-2.38-.37-3.57-.03-.25-.18-.48-.27-.72Z"/>
  <path d="m451.19,12.44c2.6.12,5.21.24,7.81.31.24,0,.49-.29.74-.45-.24-.16-.48-.45-.73-.46-1.24-.05-2.49-.02-3.74-.02-1.33,0-2.66,0-3.99.01-.17,0-.34.18-.51.28.14.12.28.33.42.33Z"/>
  <path d="m174.57,67.84c.1-.63.09-1.22-.75-1.26-.81-.03-.78.61-.75,1.14.07,1.36.18,2.72.28,4.08.01.19.09.38.14.57.14-.18.36-.34.4-.54.27-1.24.5-2.49.74-3.74-.03,0-.06-.01-.09-.02,0-.08.01-.17.03-.25Z"/>
  <path d="m405.75,71.2c.08-.08.2-.15.22-.24.2-.93.38-1.86.52-2.61-.16-1.57-.29-2.94-.44-4.3-.02-.22-.16-.43-.25-.64-.08.21-.22.41-.24.62-.11.95-.06,1.94-.31,2.85-.38,1.41.03,2.71.32,4.03.02.11.12.2.18.29Z"/>
  <path d="m565.71,7.96c2.16-.07,4.31-.17,6.47-.21.83-.02,1.66.13,2.48.14.19,0,.39-.23.59-.35-.2-.1-.4-.27-.6-.28-1.62-.02-3.24-.01-4.86-.01,0,0,0,.02,0,.03-1.62,0-3.24-.01-4.86.01-.25,0-.5.17-.75.26.26.15.5.34.78.43.23.07.49,0,.74-.01Z"/>
  <path d="m169.49,43.21c.08-.25.22-.49.22-.74-.04-3.08-.1-6.16-.17-9.24,0-.17-.12-.35-.18-.52-.09.17-.26.34-.26.51-.02,1.49-.01,2.97-.01,4.46-.04,0-.09,0-.13,0,.13,1.61.25,3.22.38,4.83.02.23.11.46.16.69Z"/>
  <path d="m697.56.72c.25,0,.5,0,.75,0,1.12,0,2.25,0,3.37-.04.18,0,.35-.15.53-.24-.17-.14-.32-.33-.52-.39-.23-.07-.49-.04-.74-.04-2.33.06-4.65.11-6.98.21-.3.01-.59.24-.88.37.33.12.67.35.99.34,1.16-.03,2.32-.14,3.49-.22Z"/>
  <path d="m13.21,45.45c.06-.22.19-.44.18-.65-.06-1.82-.15-3.65-.23-5.47.03,0,.05,0,.08,0,0-1.91,0-3.82,0-5.73,0-.21-.13-.42-.21-.63-.06.22-.17.44-.17.66-.02,1.24-.01,2.49,0,3.74.02,2.49.04,4.98.09,7.47,0,.21.18.41.28.62Z"/>
  <path d="m271.4,95.48s0-.09,0-.14c-.99,0-1.98-.02-2.97.02-.24,0-.48.22-.72.35.23.19.46.54.7.55,1.94.07,3.88.1,5.82.08.24,0,.48-.31.71-.47-.23-.13-.46-.35-.7-.36-.95-.04-1.9-.02-2.85-.02Z"/>
  <path d="m511.14,14.54c.9-.05,2.22-.12,3.54-.21.15,0,.29-.11.44-.17-.14-.11-.27-.28-.43-.33-.23-.07-.49-.06-.74-.05-2.56.1-5.11.21-7.67.33-.2,0-.4.17-.59.27.23.06.46.16.69.16,1.45.01,2.89,0,4.76,0Z"/>
  <path d="m505,40.09c-.02-.25-.08-.5-.13-.75-.03.24-.07.48-.07.73,0,2.23-.01,4.47.03,6.7.02.99.12,1.99.24,2.97.03.28.27.53.42.79.06-.3.19-.59.18-.89,0-.75-.07-1.49-.11-2.24.04,0,.08,0,.12-.01-.23-2.43-.45-4.86-.68-7.29Z"/>
  <path d="m16.64,139.45c-.28,0-.55.32-.83.49.31.13.62.34.94.37.78.05,1.58.02,2.36.02v.08c1-.04,1.99-.07,2.99-.15.19-.02.37-.26.56-.39-.15-.11-.29-.3-.44-.31-1.86-.06-3.72-.11-5.58-.11Z"/>
  <path d="m450.54,103.92c-.03-.73-.02-1.23-.1-1.71-.03-.19-.33-.48-.46-.46-.23.04-.55.25-.61.45-.22.74-.48,1.52-.46,2.27.02.43.49,1.11.88,1.21.79.19.91-.47.83-1.12-.04-.29-.07-.57-.07-.63Z"/>
  <path d="m.41,75.79c-.05.15-.13.29-.14.44-.09,1.82-.17,3.63-.25,5.45.05,0,.1,0,.14,0,0,.91-.02,1.82.01,2.73.01.31.16.61.25.91.1-.29.27-.57.27-.86.02-2.52.02-5.04.02-7.57,0-.25,0-.5-.05-.74-.03-.14-.17-.25-.26-.38Z"/>
  <path d="m391.59,63.09c-.11.14-.31.28-.31.42,0,2.68.03,5.36.07,8.05,0,.18.16.36.24.53.05-.18.14-.35.14-.53.01-1.28,0-2.56,0-3.84.03,0,.05,0,.08,0,0-1.37,0-2.73,0-4.1,0-.18-.14-.35-.21-.53Z"/>
  <path d="m564.51,91s0-.03,0-.05c-1.08,0-2.15-.02-3.23,0-.55.02-1.1.13-1.65.21.49.08.98.21,1.47.23,2.22.07,4.45.12,6.67.16.15,0,.31-.19.47-.29-.17-.09-.34-.24-.52-.25-1.08-.02-2.15-.01-3.23-.01Z"/>
  <path d="m543.89,55.77c-.03.2-.09.39-.09.59,0,1.53,0,3.06,0,4.6.01,0,.02,0,.03,0,0,1.57,0,3.15,0,4.72,0,.16.06.31.09.47.09-.15.25-.3.25-.46.01-3.1.02-6.2,0-9.3,0-.21-.18-.41-.28-.61Z"/>
  <path d="m.06,66.36c0,.13.11.26.17.38.06-.1.15-.2.17-.31.04-.2.05-.41.05-.62.07-3.15.14-6.31.2-9.46,0-.12-.12-.25-.18-.38-.06.14-.17.28-.17.43-.1,1.78-.19,3.56-.29,5.34h.05c0,1.54,0,3.08,0,4.61Z"/>
  <path d="m400.48,125.47c-.17,0-.35.24-.52.36.17.09.33.26.5.26,1.28.02,2.56.01,3.84.01,0,.05,0,.09,0,.14.75,0,1.49.02,2.24-.02.16,0,.32-.21.48-.32-.15-.12-.3-.33-.45-.34-2.03-.06-4.05-.1-6.08-.11Z"/>
  <path d="m197.77,96.97c-.08.18-.22.36-.22.54,0,2.31.03,4.62.07,6.93,0,.14.09.29.14.43.06-.13.18-.25.19-.38.11-1.41.2-2.81.27-3.89-.06-1.24-.1-2.15-.17-3.06-.02-.2-.18-.38-.28-.57Z"/>
  <path d="m23.99,129.74c-.11.21-.26.4-.31.62-.05.19,0,.41.03.62.19,2.17.38,4.35.57,6.52.01.13.07.25.11.38.03-.11.1-.23.1-.34,0-.87,0-1.74,0-2.61.01,0,.03,0,.04,0-.09-1.53-.17-3.06-.28-4.59-.01-.21-.17-.4-.27-.61Z"/>
  <path d="m193.4,109.44c-.99-.05-1.98-.14-2.97-.11-.27,0-.53.37-.8.57.25.15.49.38.75.43.44.07.91.02,1.37.02,0,.02,0,.03,0,.05,1.11-.05,2.22-.09,3.33-.18.2-.02.38-.25.57-.38-.19-.11-.38-.28-.58-.3-.55-.06-1.12-.06-1.67-.09Z"/>
  <path d="m671.67,21.21c.13-.19.35-.38.36-.57.05-.66.02-1.33.02-2-.04,0-.07,0-.11,0,0-.71.04-1.42-.03-2.12-.02-.2-.35-.36-.54-.54-.12.19-.36.38-.35.56.05,1.37.13,2.74.25,4.11.02.2.26.37.4.56Z"/>
  <path d="m86.34,44.46c1.7.06,3.39.11,5.09.12.19,0,.38-.27.56-.42-.23-.13-.45-.35-.68-.36-.79-.05-1.58-.02-2.36-.02v.12c-.83,0-1.66-.01-2.49.01-.17,0-.32.17-.49.26.12.1.24.28.36.29Z"/>
  <path d="m642.98,25.75c-.29.34-.74.64-.84,1.03-.17.67.18,1.09.95,1.09.64,0,1.27-.07,1.13-.89-.07-.44-.48-.82-.73-1.22-.17,0-.34,0-.51,0Z"/>
  <path d="m639.31,55c0-.41.07-.84-.02-1.23-.07-.31-.32-.57-.5-.85-.15.26-.42.53-.42.79.02,1.15.09,2.31.19,3.46.02.19.25.37.38.55.16-.21.45-.41.45-.62,0-.7-.11-1.39-.18-2.09.03,0,.06,0,.09,0Z"/>
  <path d="m169.35,29.42c.12-.18.34-.36.35-.54.02-1.86.02-3.72,0-5.58,0-.14-.21-.28-.33-.41-.07.18-.2.35-.2.53-.02.87,0,1.74,0,2.61-.01,0-.02,0-.04,0,0,.95-.01,1.91.01,2.86,0,.18.14.36.22.54Z"/>
  <path d="m171.84,94.47c-.07.14-.19.29-.2.43-.02,1.03,0,2.07,0,3.11.07,0,.15,0,.22,0,0,.99,0,1.99,0,2.98,0,.13.13.27.2.4.06-.09.16-.18.16-.27-.02-2.07-.04-4.15-.08-6.22,0-.15-.2-.29-.3-.43Z"/>
  <path d="m126.65,51.51c0-.14-.23-.27-.35-.4-.08.13-.21.26-.22.4-.1,1.19-.21,2.38-.24,3.58,0,.24.32.49.5.74.12-.24.33-.46.35-.71.05-.53.02-1.08.02-1.61-.01,0-.03,0-.04,0,0-.66.02-1.33-.02-1.99Z"/>
  <path d="m206.57,78.68c-.08.16-.23.32-.23.48.06,2.43.14,4.87.22,7.3,0,.11.06.22.1.33.02-.12.05-.24.05-.36,0-1.2,0-2.4,0-3.6h.06c0-1.2,0-2.4,0-3.6,0-.18-.12-.37-.19-.55Z"/>
  <path d="m53.24,102.67c-.1,0-.2.11-.3.16.13.08.25.22.38.22,1.21.02,2.42,0,3.62,0,1.21,0,2.42.01,3.62,0,.18,0,.35-.12.53-.18-.17-.07-.34-.21-.52-.21-2.45,0-4.89,0-7.34.01Z"/>
  <path d="m752.75,63.91c0-.49.03-.82-.01-1.15-.02-.18-.15-.35-.23-.52-.1.18-.3.37-.29.54.08,1.86.19,3.71.3,5.56,0,.15.1.3.15.44.09-.15.26-.31.26-.46-.05-1.53-.12-3.05-.18-4.41Z"/>
  <path d="m14.76,79.12c-.02,1.04-.01,2.08-.01,3.11.03,0,.05,0,.08,0,0,1.04,0,2.08,0,3.11,0,.16.05.32.07.48.08-.13.24-.26.24-.39.05-2.12.08-4.23.1-6.35,0-.14-.14-.27-.22-.41-.09.15-.26.29-.26.44Z"/>
  <path d="m11.05,25.86c.21-.43.42-.86.63-1.3-.06-.03-.11-.05-.17-.08,0-.12.04-.26,0-.37-.17-.45-.37-.89-.56-1.33-.22.49-.44.98-.65,1.47-.03.07-.02.18.02.25.24.46.49.91.73,1.36Z"/>
  <path d="m708.54,74.24c-.09.17-.26.34-.26.5.06,2.36.15,4.71.23,7.07,0,.1.09.21.14.31.02-.12.05-.23.05-.35,0-1.12,0-2.23,0-3.45.05-1.1.13-2.3.15-3.5,0-.19-.21-.39-.32-.58Z"/>
  <path d="m59.47,72.78c-.18-.06-.37-.17-.55-.17-.96-.02-1.91,0-2.87,0,0,.02,0,.04,0,.06-.91,0-1.83,0-2.74,0-.19,0-.37.11-.56.17.17.07.33.21.5.21,1.91,0,3.83,0,5.74-.04.16,0,.32-.15.48-.23Z"/>
  <path d="m424.42,13.72c0-.54.03-1.08-.02-1.61-.02-.21-.22-.4-.35-.59-.13.22-.36.44-.36.67-.02.91,0,1.82.06,2.73.03.34.24.66.37.99.13-.35.32-.7.39-1.06.07-.36.01-.74.01-1.11-.04,0-.07,0-.11,0Z"/>
  <path d="m704.23,3.84c.32.05.72-.4,1.39-.83-.7-.51-1.07-.97-1.48-1-.25-.02-.79.61-.78.93.02.33.52.84.86.9Z"/>
  <path d="m432.2,65.07c-.07.79-.11,1.57-.15,2.36h.06c0,.67,0,1.33,0,2,0,.12.11.25.17.37.05-.11.13-.22.14-.33.11-1.45.22-2.9.29-4.35,0-.15-.18-.31-.27-.46-.08.14-.23.27-.24.41Z"/>
  <path d="m641.19,65.5c-.06-.21-.25-.39-.38-.58-.16.2-.42.39-.45.61-.07.49-.06,1-.02,1.49.02.35.13.69.2,1.03.23-.35.48-.69.66-1.07.08-.17.01-.41.01-.62.01,0,.02,0,.03,0-.02-.29,0-.59-.07-.87Z"/>
  <path d="m498.78,33.58c.08,0,.17,0,.25,0,.48-.05.97-.11,1.45-.16-.02-.15-.03-.42-.08-.43-.5-.06-1.01-.08-1.52-.09-.12,0-.24.06-.36.09-.5.1-1.01.2-1.51.31l1.74.39s.02-.07.02-.1Z"/>
  <path d="m501.4,93.63v-.07c-.62,0-1.24-.02-1.85,0-.23,0-.45.11-.67.17.23.11.46.31.7.32,1.03.05,2.06.08,3.09.06.39,0,.77-.16,1.16-.24-.4-.08-.79-.2-1.19-.24-.41-.04-.82,0-1.24,0Z"/>
  <path d="m646.27,96.01c-.14,0-.28.1-.42.15.16.08.32.23.48.23.78.02,1.57.01,2.35.01h0c.78,0,1.57,0,2.35-.01.14,0,.27-.07.41-.11-.12-.03-.23-.07-.35-.08-1.61-.07-3.21-.14-4.82-.2Z"/>
  <path d="m680.64,86.95c-.07.25.26.62.59,1.28.38-.63.71-.93.7-1.22-.01-.33-.32-.66-.5-.99-.28.3-.68.57-.79.92Z"/>
  <path d="m118.05,54.02c.03.58.06,1.16.1,1.74,0,.11.09.22.14.32.09-.11.26-.21.26-.32.01-.78.03-1.57-.03-2.34-.03-.4-.21-.78-.33-1.17-.06.38-.12.76-.16,1.14-.02.2.02.41.03.62,0,0,0,0,0,0Z"/>
  <path d="m264.16,56.35c0-.32-.44-.65-.69-.97-.16.28-.32.55-.55.94.21.38.4.73.59,1.08.23-.35.65-.7.65-1.05Z"/>
  <path d="m14.79,61.43c.01.2.17.39.27.58.06-.18.18-.37.17-.55-.08-1.65-.19-3.3-.29-4.95,0-.1-.04-.2-.06-.3,0,.12,0,.25,0,.37-.05.99-.11,1.99-.16,2.98.02,0,.04,0,.07,0,0,.62-.02,1.25.01,1.87Z"/>
  <path d="m740.8,67.99c-.49-.04-.99-.02-1.29-.02-.65-.03-1.11-.07-1.56-.06-.11,0-.22.18-.32.27.09.07.18.19.28.2.94.09,1.89.17,2.84.22.16,0,.32-.18.48-.27-.14-.12-.27-.33-.42-.34Z"/>
  <path d="m494.28,91.59c.36.37.61.62.86.87.22-.28.64-.59.61-.85-.03-.34-.4-.66-.63-.99-.24.28-.48.55-.84.96Z"/>
  <path d="m316.62,90.71c-.31-.3-.57-.55-.82-.79-.13.17-.4.35-.37.5.09.54.27,1.06.41,1.59.23-.38.46-.77.78-1.3Z"/>
  <path d="m410,112.78c-.06.16-.18.33-.18.49-.02.58-.04,1.17.02,1.74.07.68.22,1.35.34,2.02v-1.98s.03,0,.04,0c0-.58.02-1.16,0-1.74,0-.18-.13-.36-.21-.54Z"/>
  <path d="m666.61,50.06c.22.18.45.53.65.51.27-.02.51-.33.87-.6-.3-.39-.49-.63-.68-.86-.28.32-.56.63-.84.95Z"/>
</svg>